<svg width="147" height="148" viewBox="0 0 147 148" fill="none" xmlns="http://www.w3.org/2000/svg">
<g opacity="0.5">
<path d="M73.536 144.188C112.556 144.188 144.188 112.556 144.188 73.536C144.188 34.5159 112.556 2.88379 73.536 2.88379C34.5159 2.88379 2.88379 34.5159 2.88379 73.536C2.88379 112.556 34.5159 144.188 73.536 144.188Z" fill="#BBE4FF" fill-opacity="0.4"/>
<path d="M146.928 93.5769H140.295V100.21H146.928V93.5769Z" fill="#FFCCE4"/>
<path d="M146.928 86.944H140.295V93.577H146.928V86.944Z" fill="#FFCCE4"/>
<path d="M146.928 80.1689H140.295V86.8009H146.928V80.1689Z" fill="#FFCCE4"/>
<path d="M146.928 73.536H140.295V80.168H146.928V73.536Z" fill="#FFCCE4"/>
<path d="M146.928 66.9026H140.295V73.535H146.928V66.9026Z" fill="#FFCCE4"/>
<path d="M146.928 60.1261H140.295V66.7588H146.928V60.1261Z" fill="#FFCCE4"/>
<path d="M146.928 53.4939H140.295V60.1265H146.928V53.4939Z" fill="#FFCCE4"/>
<path d="M146.928 46.7163H140.295V53.349H146.928V46.7163Z" fill="#FFCCE4"/>
<path d="M140.295 106.988H133.662V113.621H140.295V106.988Z" fill="#FFCCE4"/>
<path d="M140.295 100.21H133.662V106.843H140.295V100.21Z" fill="#FFCCE4"/>
<path d="M140.295 40.0839H133.662V46.7165H140.295V40.0839Z" fill="#F1F4CE"/>
<path d="M140.295 33.4514H133.662V40.0841H140.295V33.4514Z" fill="#F1F4CE"/>
<path d="M133.518 113.62H126.885V120.252H133.518V113.62Z" fill="#FFCCE4"/>
<path d="M133.518 26.6746H126.885V33.3072H133.518V26.6746Z" fill="#F1F4CE"/>
<path d="M126.886 120.253H120.253V126.885H126.886V120.253Z" fill="#FFCCE4"/>
<path d="M126.886 20.0415H120.253V26.6742H126.886V20.0415Z" fill="#F1F4CE"/>
<path d="M120.253 127.029H113.62V133.662H120.253V127.029Z" fill="#FFCCE4"/>
<path d="M120.253 13.4086H113.62V20.0412H120.253V13.4086Z" fill="#F1F4CE"/>
<path d="M113.476 127.029H106.844V133.662H113.476V127.029Z" fill="#FFCCE4"/>
<path d="M113.476 100.21H106.844V106.843H113.476V100.21Z" fill="#BBE4FF"/>
<path d="M113.476 13.4086H106.844V20.0412H113.476V13.4086Z" fill="#F1F4CE"/>
<path d="M106.843 133.662H100.211V140.295H106.843V133.662Z" fill="#FFCCE4"/>
<path d="M106.843 100.21H100.211V106.843H106.843V100.21Z" fill="#BBE4FF"/>
<path d="M106.843 6.6322H100.211V13.2648H106.843V6.6322Z" fill="#F1F4CE"/>
<path d="M100.211 133.662H93.578V140.295H100.211V133.662Z" fill="#FFCCE4"/>
<path d="M100.211 106.988H93.578V113.621H100.211V106.988Z" fill="#F1F4CE"/>
<path d="M100.211 6.6322H93.578V13.2648H100.211V6.6322Z" fill="#F1F4CE"/>
<path d="M93.433 133.662H86.801V140.295H93.433V133.662Z" fill="#FFCCE4"/>
<path d="M93.433 106.988H86.801V113.621H93.433V106.988Z" fill="#F1F4CE"/>
<path d="M93.433 6.6322H86.801V13.2648H93.433V6.6322Z" fill="#F1F4CE"/>
<path d="M86.801 140.439H80.169V147.072H86.801V140.439Z" fill="#FFCCE4"/>
<path d="M86.801 113.62H80.169V120.252H86.801V113.62Z" fill="#FFCCE4"/>
<path d="M86.801 -0.000244141H80.169V6.63236H86.801V-0.000244141Z" fill="#40BBFF"/>
<path d="M80.024 140.439H73.392V147.072H80.024V140.439Z" fill="#FFCCE4"/>
<path d="M80.024 113.62H73.392V120.252H80.024V113.62Z" fill="#FFCCE4"/>
<path d="M80.024 -0.000244141H73.392V6.63236H80.024V-0.000244141Z" fill="#40BBFF"/>
<path d="M73.391 140.439H66.759V147.072H73.391V140.439Z" fill="#FFCCE4"/>
<path d="M73.391 -0.000244141H66.759V6.63236H73.391V-0.000244141Z" fill="#69EDFF"/>
<path d="M66.759 140.439H60.126V147.072H66.759V140.439Z" fill="#FFCCE4"/>
<path d="M66.759 -0.000244141H60.126V6.63236H66.759V-0.000244141Z" fill="#69EDFF"/>
<path d="M59.982 133.662H53.35V140.295H59.982V133.662Z" fill="#FFCCE4"/>
<path d="M59.982 33.4514H53.35V40.0841H59.982V33.4514Z" fill="#FFCCE4"/>
<path d="M59.982 6.6322H53.35V13.2648H59.982V6.6322Z" fill="#69EDFF"/>
<path d="M53.349 133.662H46.717V140.295H53.349V133.662Z" fill="#FFCCE4"/>
<path d="M53.349 33.4514H46.717V40.0841H53.349V33.4514Z" fill="#F1F4CE"/>
<path d="M53.349 6.6322H46.717V13.2648H53.349V6.6322Z" fill="#BBE4FF"/>
<path d="M46.717 133.662H40.084V140.295H46.717V133.662Z" fill="#FFCCE4"/>
<path d="M46.717 40.0839H40.084V46.7165H46.717V40.0839Z" fill="#F1F4CE"/>
<path d="M46.717 6.6322H40.084V13.2648H46.717V6.6322Z" fill="#BBE4FF"/>
<path d="M39.94 127.029H33.308V133.662H39.94V127.029Z" fill="#FFD6C2"/>
<path d="M39.94 46.7163H33.308V53.349H39.94V46.7163Z" fill="#BBE4FF"/>
<path d="M39.94 13.4086H33.308V20.0412H39.94V13.4086Z" fill="#CDF7F0"/>
<path d="M33.307 127.029H26.675V133.662H33.307V127.029Z" fill="#FFD6C2"/>
<path d="M33.307 53.4939H26.675V60.1265H33.307V53.4939Z" fill="#BBE4FF"/>
<path d="M33.307 13.4086H26.675V20.0412H33.307V13.4086Z" fill="#F1F4CE"/>
<path d="M26.675 120.253H20.042V126.885H26.675V120.253Z" fill="#FFD6C2"/>
<path d="M26.675 20.0415H20.042V26.6742H26.675V20.0415Z" fill="#F1F4CE"/>
<path d="M19.898 113.62H13.265V120.252H19.898V113.62Z" fill="#FFD6C2"/>
<path d="M19.898 26.6746H13.265V33.3072H19.898V26.6746Z" fill="#CDF7F0"/>
<path d="M13.265 106.988H6.633V113.621H13.265V106.988Z" fill="#F1F4CE"/>
<path d="M13.265 100.21H6.633V106.843H13.265V100.21Z" fill="#F1F4CE"/>
<path d="M13.265 40.0839H6.633V46.7165H13.265V40.0839Z" fill="#BBE4FF"/>
<path d="M13.265 33.4514H6.633V40.0841H13.265V33.4514Z" fill="#CDF7F0"/>
<path d="M6.633 93.5769H0V100.21H6.633V93.5769Z" fill="#F1F4CE"/>
<path d="M6.633 86.944H0V93.577H6.633V86.944Z" fill="#F1F4CE"/>
<path d="M6.633 80.1689H0V86.8009H6.633V80.1689Z" fill="#40BBFF"/>
<path d="M6.633 73.536H0V80.168H6.633V73.536Z" fill="#40BBFF"/>
<path d="M6.633 66.9026H0V73.535H6.633V66.9026Z" fill="#69EDFF"/>
<path d="M6.633 60.1261H0V66.7588H6.633V60.1261Z" fill="#69EDFF"/>
<path d="M6.633 53.4939H0V60.1265H6.633V53.4939Z" fill="#69EDFF"/>
<path d="M6.633 46.7163H0V53.349H6.633V46.7163Z" fill="#BBE4FF"/>
</g>
</svg>
