<svg width="280" height="46" viewBox="0 0 280 46" fill="none" xmlns="http://www.w3.org/2000/svg">
<path d="M0.284091 45V1.36364H15.5398C18.5795 1.36364 21.0866 1.8892 23.0611 2.94034C25.0355 3.97727 26.5057 5.37642 27.4716 7.13778C28.4375 8.88494 28.9205 10.8239 28.9205 12.9545C28.9205 14.8295 28.5866 16.3778 27.919 17.5994C27.2656 18.821 26.3991 19.7869 25.3196 20.4972C24.2543 21.2074 23.0966 21.733 21.8466 22.0739V22.5C23.1818 22.5852 24.5241 23.054 25.8736 23.9062C27.223 24.7585 28.3523 25.9801 29.2614 27.571C30.1705 29.1619 30.625 31.108 30.625 33.4091C30.625 35.5966 30.1278 37.5639 29.1335 39.3111C28.1392 41.0582 26.5696 42.4432 24.4247 43.4659C22.2798 44.4886 19.4886 45 16.0511 45H0.284091ZM5.56818 40.3125H16.0511C19.5028 40.3125 21.9531 39.6449 23.402 38.3097C24.8651 36.9602 25.5966 35.3267 25.5966 33.4091C25.5966 31.9318 25.2202 30.5682 24.4673 29.3182C23.7145 28.054 22.642 27.0455 21.25 26.2926C19.858 25.5256 18.2102 25.142 16.3068 25.142H5.56818V40.3125ZM5.56818 20.5398H15.3693C16.9602 20.5398 18.3949 20.2273 19.6733 19.6023C20.9659 18.9773 21.9886 18.0966 22.7415 16.9602C23.5085 15.8239 23.892 14.4886 23.892 12.9545C23.892 11.0369 23.2244 9.41051 21.8892 8.07528C20.554 6.72585 18.4375 6.05114 15.5398 6.05114H5.56818V20.5398ZM67.9439 1.36364H73.228V30.2557C73.228 33.2386 72.5249 35.902 71.1186 38.2457C69.7266 40.5753 67.7592 42.4148 65.2166 43.7642C62.674 45.0994 59.6911 45.767 56.2678 45.767C52.8445 45.767 49.8615 45.0994 47.3189 43.7642C44.7763 42.4148 42.8018 40.5753 41.3956 38.2457C40.0036 35.902 39.3075 33.2386 39.3075 30.2557V1.36364H44.5916V29.8295C44.5916 31.9602 45.0604 33.8565 45.9979 35.5185C46.9354 37.1662 48.2706 38.4659 50.0036 39.4176C51.7507 40.3551 53.8388 40.8239 56.2678 40.8239C58.6967 40.8239 60.7848 40.3551 62.532 39.4176C64.2791 38.4659 65.6143 37.1662 66.5376 35.5185C67.4751 33.8565 67.9439 31.9602 67.9439 29.8295V1.36364ZM81.3938 6.05114V1.36364H114.121V6.05114H100.4V45H95.1154V6.05114H81.3938ZM119.89 6.05114V1.36364H152.617V6.05114H138.896V45H133.612V6.05114H119.89ZM195.774 23.1818C195.774 27.7841 194.943 31.7614 193.281 35.1136C191.619 38.4659 189.339 41.0511 186.442 42.8693C183.544 44.6875 180.234 45.5966 176.513 45.5966C172.791 45.5966 169.482 44.6875 166.584 42.8693C163.686 41.0511 161.406 38.4659 159.744 35.1136C158.082 31.7614 157.251 27.7841 157.251 23.1818C157.251 18.5795 158.082 14.6023 159.744 11.25C161.406 7.89773 163.686 5.3125 166.584 3.49432C169.482 1.67614 172.791 0.767044 176.513 0.767044C180.234 0.767044 183.544 1.67614 186.442 3.49432C189.339 5.3125 191.619 7.89773 193.281 11.25C194.943 14.6023 195.774 18.5795 195.774 23.1818ZM190.661 23.1818C190.661 19.4034 190.028 16.2145 188.764 13.6151C187.514 11.0156 185.817 9.0483 183.672 7.71307C181.541 6.37784 179.155 5.71023 176.513 5.71023C173.871 5.71023 171.477 6.37784 169.332 7.71307C167.202 9.0483 165.504 11.0156 164.24 13.6151C162.99 16.2145 162.365 19.4034 162.365 23.1818C162.365 26.9602 162.99 30.1491 164.24 32.7486C165.504 35.348 167.202 37.3153 169.332 38.6506C171.477 39.9858 173.871 40.6534 176.513 40.6534C179.155 40.6534 181.541 39.9858 183.672 38.6506C185.817 37.3153 187.514 35.348 188.764 32.7486C190.028 30.1491 190.661 26.9602 190.661 23.1818ZM239.261 1.36364V45H234.148L210.369 10.7386H209.943V45H204.659V1.36364H209.773L233.636 35.7102H234.062V1.36364H239.261ZM273.699 12.2727C273.443 10.1136 272.406 8.4375 270.588 7.24432C268.77 6.05114 266.539 5.45454 263.897 5.45454C261.966 5.45454 260.275 5.76704 258.826 6.39204C257.392 7.01704 256.27 7.87642 255.46 8.97017C254.664 10.0639 254.267 11.3068 254.267 12.6989C254.267 13.8636 254.544 14.8651 255.098 15.7031C255.666 16.527 256.39 17.2159 257.271 17.7699C258.152 18.3097 259.075 18.7571 260.041 19.1122C261.007 19.4531 261.895 19.7301 262.704 19.9432L267.136 21.1364C268.272 21.4347 269.537 21.8466 270.929 22.3722C272.335 22.8977 273.677 23.6151 274.956 24.5241C276.248 25.419 277.314 26.5696 278.152 27.9759C278.99 29.3821 279.409 31.108 279.409 33.1534C279.409 35.5114 278.791 37.642 277.555 39.5455C276.333 41.4489 274.544 42.9616 272.186 44.0838C269.842 45.206 266.994 45.767 263.642 45.767C260.517 45.767 257.811 45.2628 255.524 44.2543C253.251 43.2457 251.461 41.8395 250.154 40.0355C248.862 38.2315 248.13 36.1364 247.96 33.75H253.414C253.556 35.3977 254.11 36.7614 255.076 37.8409C256.056 38.9062 257.292 39.7017 258.784 40.2273C260.289 40.7386 261.909 40.9943 263.642 40.9943C265.659 40.9943 267.47 40.6676 269.075 40.0142C270.68 39.3466 271.951 38.4233 272.889 37.2443C273.826 36.0511 274.295 34.6591 274.295 33.0682C274.295 31.6193 273.89 30.4403 273.081 29.5312C272.271 28.6222 271.206 27.8835 269.885 27.3153C268.564 26.7472 267.136 26.25 265.602 25.8239L260.233 24.2898C256.824 23.3097 254.125 21.9105 252.136 20.0923C250.147 18.2741 249.153 15.8949 249.153 12.9545C249.153 10.5114 249.814 8.38068 251.135 6.5625C252.47 4.73011 254.26 3.30966 256.504 2.30114C258.762 1.27841 261.284 0.767044 264.068 0.767044C266.88 0.767044 269.38 1.27131 271.568 2.27983C273.755 3.27415 275.488 4.63778 276.767 6.37074C278.059 8.10369 278.741 10.071 278.812 12.2727H273.699Z" fill="#9D9BFF"/>
</svg>
