<svg width="394" height="46" viewBox="0 0 394 46" fill="none" xmlns="http://www.w3.org/2000/svg">
<path d="M37.3977 15H32.1136C31.8011 13.4801 31.2543 12.1449 30.473 10.9943C29.706 9.84375 28.7685 8.87784 27.6605 8.09659C26.5668 7.30114 25.3523 6.70455 24.017 6.30682C22.6818 5.90909 21.2898 5.71023 19.8409 5.71023C17.1989 5.71023 14.8054 6.37784 12.6605 7.71307C10.5298 9.0483 8.83239 11.0156 7.56818 13.6151C6.31818 16.2145 5.69318 19.4034 5.69318 23.1818C5.69318 26.9602 6.31818 30.1491 7.56818 32.7486C8.83239 35.348 10.5298 37.3153 12.6605 38.6506C14.8054 39.9858 17.1989 40.6534 19.8409 40.6534C21.2898 40.6534 22.6818 40.4545 24.017 40.0568C25.3523 39.6591 26.5668 39.0696 27.6605 38.2884C28.7685 37.4929 29.706 36.5199 30.473 35.3693C31.2543 34.2045 31.8011 32.8693 32.1136 31.3636H37.3977C37 33.5937 36.2756 35.5895 35.2244 37.3509C34.1733 39.1122 32.8665 40.6108 31.304 41.8466C29.7415 43.0682 27.9872 43.9986 26.0412 44.6378C24.1094 45.277 22.0426 45.5966 19.8409 45.5966C16.1193 45.5966 12.8097 44.6875 9.91193 42.8693C7.0142 41.0511 4.73438 38.4659 3.07244 35.1136C1.41051 31.7614 0.579546 27.7841 0.579546 23.1818C0.579546 18.5795 1.41051 14.6023 3.07244 11.25C4.73438 7.89773 7.0142 5.3125 9.91193 3.49432C12.8097 1.67614 16.1193 0.767044 19.8409 0.767044C22.0426 0.767044 24.1094 1.08665 26.0412 1.72585C27.9872 2.36506 29.7415 3.30256 31.304 4.53835C32.8665 5.75994 34.1733 7.25142 35.2244 9.01278C36.2756 10.7599 37 12.7557 37.3977 15ZM45.9364 45V1.36364H51.2205V20.7955H74.4876V1.36364H79.7717V45H74.4876V25.483H51.2205V45H45.9364ZM92.1403 45H86.6005L102.623 1.36364H108.078L124.1 45H118.561L105.521 8.26704H105.18L92.1403 45ZM94.1857 27.9545H116.515V32.642H94.1857V27.9545ZM130.897 45V1.36364H145.642C149.051 1.36364 151.849 1.94602 154.037 3.11079C156.224 4.26136 157.843 5.84517 158.895 7.86222C159.946 9.87926 160.471 12.1733 160.471 14.7443C160.471 17.3153 159.946 19.5952 158.895 21.5838C157.843 23.5724 156.231 25.1349 154.058 26.2713C151.885 27.3935 149.108 27.9545 145.727 27.9545H133.795V23.1818H145.556C147.886 23.1818 149.761 22.8409 151.181 22.1591C152.616 21.4773 153.653 20.5114 154.292 19.2614C154.946 17.9972 155.272 16.4915 155.272 14.7443C155.272 12.9972 154.946 11.4702 154.292 10.1634C153.639 8.85653 152.595 7.84801 151.16 7.13778C149.725 6.41335 147.829 6.05114 145.471 6.05114H136.181V45H130.897ZM151.437 25.3977L162.176 45H156.039L145.471 25.3977H151.437ZM171.066 45H165.526L181.549 1.36364H187.004L203.026 45H197.487L184.447 8.26704H184.106L171.066 45ZM173.112 27.9545H195.441V32.642H173.112V27.9545ZM242.886 15H237.602C237.289 13.4801 236.743 12.1449 235.961 10.9943C235.194 9.84375 234.257 8.87784 233.149 8.09659C232.055 7.30114 230.841 6.70455 229.505 6.30682C228.17 5.90909 226.778 5.71023 225.329 5.71023C222.687 5.71023 220.294 6.37784 218.149 7.71307C216.018 9.0483 214.321 11.0156 213.056 13.6151C211.806 16.2145 211.181 19.4034 211.181 23.1818C211.181 26.9602 211.806 30.1491 213.056 32.7486C214.321 35.348 216.018 37.3153 218.149 38.6506C220.294 39.9858 222.687 40.6534 225.329 40.6534C226.778 40.6534 228.17 40.4545 229.505 40.0568C230.841 39.6591 232.055 39.0696 233.149 38.2884C234.257 37.4929 235.194 36.5199 235.961 35.3693C236.743 34.2045 237.289 32.8693 237.602 31.3636H242.886C242.488 33.5937 241.764 35.5895 240.713 37.3509C239.662 39.1122 238.355 40.6108 236.792 41.8466C235.23 43.0682 233.475 43.9986 231.529 44.6378C229.598 45.277 227.531 45.5966 225.329 45.5966C221.608 45.5966 218.298 44.6875 215.4 42.8693C212.502 41.0511 210.223 38.4659 208.561 35.1136C206.899 31.7614 206.068 27.7841 206.068 23.1818C206.068 18.5795 206.899 14.6023 208.561 11.25C210.223 7.89773 212.502 5.3125 215.4 3.49432C218.298 1.67614 221.608 0.767044 225.329 0.767044C227.531 0.767044 229.598 1.08665 231.529 1.72585C233.475 2.36506 235.23 3.30256 236.792 4.53835C238.355 5.75994 239.662 7.25142 240.713 9.01278C241.764 10.7599 242.488 12.7557 242.886 15ZM249.038 6.05114V1.36364H281.766V6.05114H268.044V45H262.76V6.05114H249.038ZM289.921 45V1.36364H316.256V6.05114H295.205V20.7955H314.892V25.483H295.205V40.3125H316.597V45H289.921ZM325.78 45V1.36364H340.525C343.934 1.36364 346.732 1.94602 348.919 3.11079C351.107 4.26136 352.726 5.84517 353.777 7.86222C354.828 9.87926 355.354 12.1733 355.354 14.7443C355.354 17.3153 354.828 19.5952 353.777 21.5838C352.726 23.5724 351.114 25.1349 348.941 26.2713C346.767 27.3935 343.99 27.9545 340.61 27.9545H328.678V23.1818H340.439C342.769 23.1818 344.644 22.8409 346.064 22.1591C347.499 21.4773 348.536 20.5114 349.175 19.2614C349.828 17.9972 350.155 16.4915 350.155 14.7443C350.155 12.9972 349.828 11.4702 349.175 10.1634C348.522 8.85653 347.478 7.84801 346.043 7.13778C344.608 6.41335 342.712 6.05114 340.354 6.05114H331.064V45H325.78ZM346.32 25.3977L357.059 45H350.922L340.354 25.3977H346.32ZM388.023 12.2727C387.767 10.1136 386.73 8.4375 384.912 7.24432C383.094 6.05114 380.864 5.45454 378.222 5.45454C376.29 5.45454 374.599 5.76704 373.151 6.39204C371.716 7.01704 370.594 7.87642 369.784 8.97017C368.989 10.0639 368.591 11.3068 368.591 12.6989C368.591 13.8636 368.868 14.8651 369.422 15.7031C369.99 16.527 370.714 17.2159 371.595 17.7699C372.476 18.3097 373.399 18.7571 374.365 19.1122C375.331 19.4531 376.219 19.7301 377.028 19.9432L381.46 21.1364C382.597 21.4347 383.861 21.8466 385.253 22.3722C386.659 22.8977 388.001 23.6151 389.28 24.5241C390.572 25.419 391.638 26.5696 392.476 27.9759C393.314 29.3821 393.733 31.108 393.733 33.1534C393.733 35.5114 393.115 37.642 391.879 39.5455C390.658 41.4489 388.868 42.9616 386.51 44.0838C384.166 45.206 381.318 45.767 377.966 45.767C374.841 45.767 372.135 45.2628 369.848 44.2543C367.575 43.2457 365.786 41.8395 364.479 40.0355C363.186 38.2315 362.455 36.1364 362.284 33.75H367.739C367.881 35.3977 368.435 36.7614 369.401 37.8409C370.381 38.9062 371.616 39.7017 373.108 40.2273C374.614 40.7386 376.233 40.9943 377.966 40.9943C379.983 40.9943 381.794 40.6676 383.399 40.0142C385.004 39.3466 386.276 38.4233 387.213 37.2443C388.151 36.0511 388.619 34.6591 388.619 33.0682C388.619 31.6193 388.214 30.4403 387.405 29.5312C386.595 28.6222 385.53 27.8835 384.209 27.3153C382.888 26.7472 381.46 26.25 379.926 25.8239L374.557 24.2898C371.148 23.3097 368.449 21.9105 366.46 20.0923C364.472 18.2741 363.477 15.8949 363.477 12.9545C363.477 10.5114 364.138 8.38068 365.459 6.5625C366.794 4.73011 368.584 3.30966 370.828 2.30114C373.087 1.27841 375.608 0.767044 378.392 0.767044C381.205 0.767044 383.705 1.27131 385.892 2.27983C388.08 3.27415 389.813 4.63778 391.091 6.37074C392.384 8.10369 393.065 10.071 393.136 12.2727H388.023Z" fill="#9D9BFF"/>
</svg>
