<svg width="568" height="46" viewBox="0 0 568 46" fill="none" xmlns="http://www.w3.org/2000/svg">
<path d="M37.3977 15H32.1136C31.8011 13.4801 31.2543 12.1449 30.473 10.9943C29.706 9.84375 28.7685 8.87784 27.6605 8.09659C26.5668 7.30114 25.3523 6.70455 24.017 6.30682C22.6818 5.90909 21.2898 5.71023 19.8409 5.71023C17.1989 5.71023 14.8054 6.37784 12.6605 7.71307C10.5298 9.0483 8.83239 11.0156 7.56818 13.6151C6.31818 16.2145 5.69318 19.4034 5.69318 23.1818C5.69318 26.9602 6.31818 30.1491 7.56818 32.7486C8.83239 35.348 10.5298 37.3153 12.6605 38.6506C14.8054 39.9858 17.1989 40.6534 19.8409 40.6534C21.2898 40.6534 22.6818 40.4545 24.017 40.0568C25.3523 39.6591 26.5668 39.0696 27.6605 38.2884C28.7685 37.4929 29.706 36.5199 30.473 35.3693C31.2543 34.2045 31.8011 32.8693 32.1136 31.3636H37.3977C37 33.5937 36.2756 35.5895 35.2244 37.3509C34.1733 39.1122 32.8665 40.6108 31.304 41.8466C29.7415 43.0682 27.9872 43.9986 26.0412 44.6378C24.1094 45.277 22.0426 45.5966 19.8409 45.5966C16.1193 45.5966 12.8097 44.6875 9.91193 42.8693C7.0142 41.0511 4.73438 38.4659 3.07244 35.1136C1.41051 31.7614 0.579546 27.7841 0.579546 23.1818C0.579546 18.5795 1.41051 14.6023 3.07244 11.25C4.73438 7.89773 7.0142 5.3125 9.91193 3.49432C12.8097 1.67614 16.1193 0.767044 19.8409 0.767044C22.0426 0.767044 24.1094 1.08665 26.0412 1.72585C27.9872 2.36506 29.7415 3.30256 31.304 4.53835C32.8665 5.75994 34.1733 7.25142 35.2244 9.01278C36.2756 10.7599 37 12.7557 37.3977 15ZM51.2205 1.36364V45H45.9364V1.36364H51.2205ZM59.429 6.05114V1.36364H92.1562V6.05114H78.4347V45H73.1506V6.05114H59.429ZM96.5614 1.36364H102.613L114.715 21.733H115.226L127.328 1.36364H133.38L117.613 27.017V45H112.328V27.017L96.5614 1.36364ZM157.089 45V1.36364H172.344C175.384 1.36364 177.891 1.8892 179.866 2.94034C181.84 3.97727 183.31 5.37642 184.276 7.13778C185.242 8.88494 185.725 10.8239 185.725 12.9545C185.725 14.8295 185.391 16.3778 184.724 17.5994C184.07 18.821 183.204 19.7869 182.124 20.4972C181.059 21.2074 179.901 21.733 178.651 22.0739V22.5C179.987 22.5852 181.329 23.054 182.678 23.9062C184.028 24.7585 185.157 25.9801 186.066 27.571C186.975 29.1619 187.43 31.108 187.43 33.4091C187.43 35.5966 186.933 37.5639 185.938 39.3111C184.944 41.0582 183.374 42.4432 181.229 43.4659C179.085 44.4886 176.293 45 172.856 45H157.089ZM162.373 40.3125H172.856C176.308 40.3125 178.758 39.6449 180.207 38.3097C181.67 36.9602 182.401 35.3267 182.401 33.4091C182.401 31.9318 182.025 30.5682 181.272 29.3182C180.519 28.054 179.447 27.0455 178.055 26.2926C176.663 25.5256 175.015 25.142 173.112 25.142H162.373V40.3125ZM162.373 20.5398H172.174C173.765 20.5398 175.2 20.2273 176.478 19.6023C177.771 18.9773 178.793 18.0966 179.546 16.9602C180.313 15.8239 180.697 14.4886 180.697 12.9545C180.697 11.0369 180.029 9.41051 178.694 8.07528C177.359 6.72585 175.242 6.05114 172.344 6.05114H162.373V20.5398ZM197.902 45H192.362L208.385 1.36364H213.839L229.862 45H224.322L211.283 8.26704H210.942L197.902 45ZM199.947 27.9545H222.277V32.642H199.947V27.9545ZM269.722 15H264.438C264.125 13.4801 263.578 12.1449 262.797 10.9943C262.03 9.84375 261.093 8.87784 259.985 8.09659C258.891 7.30114 257.676 6.70455 256.341 6.30682C255.006 5.90909 253.614 5.71023 252.165 5.71023C249.523 5.71023 247.13 6.37784 244.985 7.71307C242.854 9.0483 241.157 11.0156 239.892 13.6151C238.642 16.2145 238.017 19.4034 238.017 23.1818C238.017 26.9602 238.642 30.1491 239.892 32.7486C241.157 35.348 242.854 37.3153 244.985 38.6506C247.13 39.9858 249.523 40.6534 252.165 40.6534C253.614 40.6534 255.006 40.4545 256.341 40.0568C257.676 39.6591 258.891 39.0696 259.985 38.2884C261.093 37.4929 262.03 36.5199 262.797 35.3693C263.578 34.2045 264.125 32.8693 264.438 31.3636H269.722C269.324 33.5937 268.6 35.5895 267.549 37.3509C266.498 39.1122 265.191 40.6108 263.628 41.8466C262.066 43.0682 260.311 43.9986 258.365 44.6378C256.434 45.277 254.367 45.5966 252.165 45.5966C248.444 45.5966 245.134 44.6875 242.236 42.8693C239.338 41.0511 237.059 38.4659 235.397 35.1136C233.735 31.7614 232.904 27.7841 232.904 23.1818C232.904 18.5795 233.735 14.6023 235.397 11.25C237.059 7.89773 239.338 5.3125 242.236 3.49432C245.134 1.67614 248.444 0.767044 252.165 0.767044C254.367 0.767044 256.434 1.08665 258.365 1.72585C260.311 2.36506 262.066 3.30256 263.628 4.53835C265.191 5.75994 266.498 7.25142 267.549 9.01278C268.6 10.7599 269.324 12.7557 269.722 15ZM278.261 45V1.36364H283.545V23.0114H284.056L303.658 1.36364H310.562L292.238 21.0511L310.562 45H304.17L288.999 24.7159L283.545 30.8523V45H278.261ZM345.18 15C344.711 13.5653 344.093 12.2798 343.326 11.1435C342.574 9.9929 341.672 9.01278 340.62 8.20312C339.583 7.39347 338.404 6.77557 337.083 6.34943C335.762 5.92329 334.314 5.71023 332.737 5.71023C330.152 5.71023 327.801 6.37784 325.684 7.71307C323.568 9.0483 321.885 11.0156 320.635 13.6151C319.385 16.2145 318.76 19.4034 318.76 23.1818C318.76 26.9602 319.392 30.1491 320.656 32.7486C321.92 35.348 323.632 37.3153 325.791 38.6506C327.95 39.9858 330.379 40.6534 333.078 40.6534C335.578 40.6534 337.779 40.1207 339.683 39.0554C341.6 37.9759 343.092 36.456 344.157 34.4957C345.237 32.5213 345.777 30.1989 345.777 27.5284L347.396 27.8693H334.271V23.1818H350.89V27.8693C350.89 31.4631 350.123 34.5881 348.589 37.2443C347.069 39.9006 344.967 41.9602 342.282 43.4233C339.612 44.8722 336.544 45.5966 333.078 45.5966C329.214 45.5966 325.819 44.6875 322.893 42.8693C319.981 41.0511 317.708 38.4659 316.075 35.1136C314.456 31.7614 313.646 27.7841 313.646 23.1818C313.646 19.7301 314.108 16.6264 315.031 13.8707C315.968 11.1009 317.289 8.7429 318.994 6.79688C320.699 4.85085 322.716 3.35938 325.045 2.32244C327.375 1.28551 329.939 0.767044 332.737 0.767044C335.038 0.767044 337.183 1.11506 339.172 1.81108C341.174 2.4929 342.957 3.46591 344.52 4.73011C346.096 5.98011 347.41 7.47869 348.461 9.22585C349.512 10.9588 350.237 12.8835 350.635 15H345.18ZM359.94 45V1.36364H374.685C378.094 1.36364 380.892 1.94602 383.08 3.11079C385.267 4.26136 386.886 5.84517 387.938 7.86222C388.989 9.87926 389.514 12.1733 389.514 14.7443C389.514 17.3153 388.989 19.5952 387.938 21.5838C386.886 23.5724 385.274 25.1349 383.101 26.2713C380.928 27.3935 378.151 27.9545 374.77 27.9545H362.838V23.1818H374.599C376.929 23.1818 378.804 22.8409 380.224 22.1591C381.659 21.4773 382.696 20.5114 383.335 19.2614C383.989 17.9972 384.315 16.4915 384.315 14.7443C384.315 12.9972 383.989 11.4702 383.335 10.1634C382.682 8.85653 381.638 7.84801 380.203 7.13778C378.768 6.41335 376.872 6.05114 374.514 6.05114H365.224V45H359.94ZM380.48 25.3977L391.219 45H385.082L374.514 25.3977H380.48ZM435.137 23.1818C435.137 27.7841 434.306 31.7614 432.645 35.1136C430.983 38.4659 428.703 41.0511 425.805 42.8693C422.907 44.6875 419.598 45.5966 415.876 45.5966C412.154 45.5966 408.845 44.6875 405.947 42.8693C403.049 41.0511 400.77 38.4659 399.108 35.1136C397.446 31.7614 396.615 27.7841 396.615 23.1818C396.615 18.5795 397.446 14.6023 399.108 11.25C400.77 7.89773 403.049 5.3125 405.947 3.49432C408.845 1.67614 412.154 0.767044 415.876 0.767044C419.598 0.767044 422.907 1.67614 425.805 3.49432C428.703 5.3125 430.983 7.89773 432.645 11.25C434.306 14.6023 435.137 18.5795 435.137 23.1818ZM430.024 23.1818C430.024 19.4034 429.392 16.2145 428.127 13.6151C426.877 11.0156 425.18 9.0483 423.035 7.71307C420.904 6.37784 418.518 5.71023 415.876 5.71023C413.234 5.71023 410.841 6.37784 408.696 7.71307C406.565 9.0483 404.868 11.0156 403.603 13.6151C402.353 16.2145 401.728 19.4034 401.728 23.1818C401.728 26.9602 402.353 30.1491 403.603 32.7486C404.868 35.348 406.565 37.3153 408.696 38.6506C410.841 39.9858 413.234 40.6534 415.876 40.6534C418.518 40.6534 420.904 39.9858 423.035 38.6506C425.18 37.3153 426.877 35.348 428.127 32.7486C429.392 30.1491 430.024 26.9602 430.024 23.1818ZM472.659 1.36364H477.943V30.2557C477.943 33.2386 477.24 35.902 475.833 38.2457C474.441 40.5753 472.474 42.4148 469.931 43.7642C467.389 45.0994 464.406 45.767 460.983 45.767C457.559 45.767 454.576 45.0994 452.034 43.7642C449.491 42.4148 447.517 40.5753 446.11 38.2457C444.718 35.902 444.022 33.2386 444.022 30.2557V1.36364H449.306V29.8295C449.306 31.9602 449.775 33.8565 450.713 35.5185C451.65 37.1662 452.985 38.4659 454.718 39.4176C456.466 40.3551 458.554 40.8239 460.983 40.8239C463.412 40.8239 465.5 40.3551 467.247 39.4176C468.994 38.4659 470.329 37.1662 471.252 35.5185C472.19 33.8565 472.659 31.9602 472.659 29.8295V1.36364ZM523.097 1.36364V45H517.984L494.205 10.7386H493.779V45H488.495V1.36364H493.609L517.472 35.7102H517.898V1.36364H523.097ZM547.137 45H533.671V1.36364H547.733C551.966 1.36364 555.588 2.23722 558.6 3.98438C561.611 5.71733 563.919 8.21023 565.525 11.4631C567.13 14.7017 567.932 18.5795 567.932 23.0966C567.932 27.642 567.123 31.5554 565.503 34.8366C563.884 38.1037 561.526 40.6179 558.429 42.3793C555.333 44.1264 551.569 45 547.137 45ZM538.955 40.3125H546.796C550.404 40.3125 553.394 39.6165 555.766 38.2244C558.138 36.8324 559.907 34.8509 561.071 32.2798C562.236 29.7088 562.819 26.6477 562.819 23.0966C562.819 19.5739 562.243 16.5412 561.093 13.9986C559.942 11.4418 558.223 9.48153 555.936 8.1179C553.65 6.74006 550.801 6.05114 547.392 6.05114H538.955V40.3125Z" fill="#9D9BFF"/>
</svg>
