<svg width="871" height="235" viewBox="0 0 871 235" fill="none" xmlns="http://www.w3.org/2000/svg">
<rect x="0.5" y="0.5" width="870" height="234" rx="4.5" stroke="#9747FF" stroke-dasharray="10 5"/>
<g style="mix-blend-mode:plus-lighter" opacity="0.5">
<circle cx="330.536" cy="102.536" r="70.6522" fill="#BBE4FF" fill-opacity="0.4"/>
<path d="M403.928 122.577H397.295V129.21H403.928V122.577Z" fill="#FFCCE4"/>
<path d="M403.928 115.944H397.295V122.577H403.928V115.944Z" fill="#FFCCE4"/>
<path d="M403.928 109.169H397.295V115.801H403.928V109.169Z" fill="#FFCCE4"/>
<path d="M403.928 102.536H397.295V109.168H403.928V102.536Z" fill="#FFCCE4"/>
<path d="M403.928 95.9026H397.295V102.535H403.928V95.9026Z" fill="#FFCCE4"/>
<path d="M403.928 89.1262H397.295V95.7589H403.928V89.1262Z" fill="#FFCCE4"/>
<path d="M403.928 82.4939H397.295V89.1265H403.928V82.4939Z" fill="#FFCCE4"/>
<path d="M403.928 75.7163H397.295V82.349H403.928V75.7163Z" fill="#FFCCE4"/>
<path d="M397.295 135.988H390.662V142.621H397.295V135.988Z" fill="#FFCCE4"/>
<path d="M397.295 129.21H390.662V135.843H397.295V129.21Z" fill="#FFCCE4"/>
<path d="M397.295 69.0839H390.662V75.7165H397.295V69.0839Z" fill="#F1F4CE"/>
<path d="M397.295 62.4515H390.662V69.0842H397.295V62.4515Z" fill="#F1F4CE"/>
<path d="M390.518 142.62H383.885V149.252H390.518V142.62Z" fill="#FFCCE4"/>
<path d="M390.518 55.6746H383.885V62.3072H390.518V55.6746Z" fill="#F1F4CE"/>
<path d="M383.886 149.253H377.253V155.885H383.886V149.253Z" fill="#FFCCE4"/>
<path d="M383.886 49.0415H377.253V55.6742H383.886V49.0415Z" fill="#F1F4CE"/>
<path d="M377.253 156.029H370.62V162.662H377.253V156.029Z" fill="#FFCCE4"/>
<path d="M377.253 42.4086H370.62V49.0412H377.253V42.4086Z" fill="#F1F4CE"/>
<path d="M370.476 156.029H363.844V162.662H370.476V156.029Z" fill="#FFCCE4"/>
<path d="M370.476 129.21H363.844V135.843H370.476V129.21Z" fill="#BBE4FF"/>
<path d="M370.476 42.4086H363.844V49.0412H370.476V42.4086Z" fill="#F1F4CE"/>
<path d="M363.843 162.662H357.211V169.295H363.843V162.662Z" fill="#FFCCE4"/>
<path d="M363.843 129.21H357.211V135.843H363.843V129.21Z" fill="#BBE4FF"/>
<path d="M363.843 35.6322H357.211V42.2648H363.843V35.6322Z" fill="#F1F4CE"/>
<path d="M357.211 162.662H350.578V169.295H357.211V162.662Z" fill="#FFCCE4"/>
<path d="M357.211 135.988H350.578V142.621H357.211V135.988Z" fill="#F1F4CE"/>
<path d="M357.211 35.6322H350.578V42.2648H357.211V35.6322Z" fill="#F1F4CE"/>
<path d="M350.433 162.662H343.801V169.295H350.433V162.662Z" fill="#FFCCE4"/>
<path d="M350.433 135.988H343.801V142.621H350.433V135.988Z" fill="#F1F4CE"/>
<path d="M350.433 35.6322H343.801V42.2648H350.433V35.6322Z" fill="#F1F4CE"/>
<path d="M343.801 169.439H337.169V176.072H343.801V169.439Z" fill="#FFCCE4"/>
<path d="M343.801 142.62H337.169V149.252H343.801V142.62Z" fill="#FFCCE4"/>
<path d="M343.801 28.9998H337.169V35.6324H343.801V28.9998Z" fill="#40BBFF"/>
<path d="M337.024 169.439H330.392V176.072H337.024V169.439Z" fill="#FFCCE4"/>
<path d="M337.024 142.62H330.392V149.252H337.024V142.62Z" fill="#FFCCE4"/>
<path d="M337.024 28.9998H330.392V35.6324H337.024V28.9998Z" fill="#40BBFF"/>
<path d="M330.391 169.439H323.759V176.072H330.391V169.439Z" fill="#FFCCE4"/>
<path d="M330.391 28.9998H323.759V35.6324H330.391V28.9998Z" fill="#69EDFF"/>
<path d="M323.759 169.439H317.126V176.072H323.759V169.439Z" fill="#FFCCE4"/>
<path d="M323.759 28.9998H317.126V35.6324H323.759V28.9998Z" fill="#69EDFF"/>
<path d="M316.982 162.662H310.35V169.295H316.982V162.662Z" fill="#FFCCE4"/>
<path d="M316.982 62.4515H310.35V69.0842H316.982V62.4515Z" fill="#FFCCE4"/>
<path d="M316.982 35.6322H310.35V42.2648H316.982V35.6322Z" fill="#69EDFF"/>
<path d="M310.349 162.662H303.717V169.295H310.349V162.662Z" fill="#FFCCE4"/>
<path d="M310.349 62.4515H303.717V69.0842H310.349V62.4515Z" fill="#F1F4CE"/>
<path d="M310.349 35.6322H303.717V42.2648H310.349V35.6322Z" fill="#BBE4FF"/>
<path d="M303.717 162.662H297.084V169.295H303.717V162.662Z" fill="#FFCCE4"/>
<path d="M303.717 69.0839H297.084V75.7165H303.717V69.0839Z" fill="#F1F4CE"/>
<path d="M303.717 35.6322H297.084V42.2648H303.717V35.6322Z" fill="#BBE4FF"/>
<path d="M296.94 156.029H290.308V162.662H296.94V156.029Z" fill="#FFD6C2"/>
<path d="M296.94 75.7163H290.308V82.349H296.94V75.7163Z" fill="#BBE4FF"/>
<path d="M296.94 42.4086H290.308V49.0412H296.94V42.4086Z" fill="#CDF7F0"/>
<path d="M290.307 156.029H283.675V162.662H290.307V156.029Z" fill="#FFD6C2"/>
<path d="M290.307 82.4939H283.675V89.1265H290.307V82.4939Z" fill="#BBE4FF"/>
<path d="M290.307 42.4086H283.675V49.0412H290.307V42.4086Z" fill="#F1F4CE"/>
<path d="M283.675 149.253H277.042V155.885H283.675V149.253Z" fill="#FFD6C2"/>
<path d="M283.675 49.0415H277.042V55.6742H283.675V49.0415Z" fill="#F1F4CE"/>
<path d="M276.898 142.62H270.265V149.252H276.898V142.62Z" fill="#FFD6C2"/>
<path d="M276.898 55.6746H270.265V62.3072H276.898V55.6746Z" fill="#CDF7F0"/>
<path d="M270.265 135.988H263.633V142.621H270.265V135.988Z" fill="#F1F4CE"/>
<path d="M270.265 129.21H263.633V135.843H270.265V129.21Z" fill="#F1F4CE"/>
<path d="M270.265 69.0839H263.633V75.7165H270.265V69.0839Z" fill="#BBE4FF"/>
<path d="M270.265 62.4515H263.633V69.0842H270.265V62.4515Z" fill="#CDF7F0"/>
<path d="M263.633 122.577H257V129.21H263.633V122.577Z" fill="#F1F4CE"/>
<path d="M263.633 115.944H257V122.577H263.633V115.944Z" fill="#F1F4CE"/>
<path d="M263.633 109.169H257V115.801H263.633V109.169Z" fill="#40BBFF"/>
<path d="M263.633 102.536H257V109.168H263.633V102.536Z" fill="#40BBFF"/>
<path d="M263.633 95.9026H257V102.535H263.633V95.9026Z" fill="#69EDFF"/>
<path d="M263.633 89.1262H257V95.7589H263.633V89.1262Z" fill="#69EDFF"/>
<path d="M263.633 82.4939H257V89.1265H263.633V82.4939Z" fill="#69EDFF"/>
<path d="M263.633 75.7163H257V82.349H263.633V75.7163Z" fill="#BBE4FF"/>
</g>
<circle cx="722.536" cy="102.536" r="70.6522" fill="#F14338" fill-opacity="0.3"/>
<path d="M795.928 122.577H789.295V129.21H795.928V122.577Z" fill="#F14338"/>
<path d="M795.928 115.944H789.295V122.577H795.928V115.944Z" fill="#F14338"/>
<path d="M795.928 109.168H789.295V115.801H795.928V109.168Z" fill="#F14338"/>
<path d="M795.928 102.536H789.295V109.168H795.928V102.536Z" fill="#F14338"/>
<path d="M795.928 95.9028H789.295V102.535H795.928V95.9028Z" fill="#F14338"/>
<path d="M795.928 89.1265H789.295V95.7591H795.928V89.1265Z" fill="#F14338"/>
<path d="M795.928 82.4937H789.295V89.1263H795.928V82.4937Z" fill="#F14338"/>
<path d="M795.928 75.7163H789.295V82.349H795.928V75.7163Z" fill="#F14338"/>
<path d="M789.295 135.988H782.662V142.62H789.295V135.988Z" fill="#F14338"/>
<path d="M789.295 129.21H782.662V135.843H789.295V129.21Z" fill="#F14338"/>
<path d="M789.295 69.084H782.662V75.7166H789.295V69.084Z" fill="#F14338"/>
<path d="M789.295 62.4517H782.662V69.0843H789.295V62.4517Z" fill="#F14338"/>
<path d="M783 142H776V149H783V142Z" fill="#F14338"/>
<path d="M782.518 55.6743H775.886V62.307H782.518V55.6743Z" fill="#F14338"/>
<path d="M775.886 49.0415H769.253V55.6742H775.886V49.0415Z" fill="#F14338"/>
<path d="M769.253 156.029H762.62V162.662H769.253V156.029Z" fill="#F14338"/>
<path d="M769.253 42.4087H762.62V49.0414H769.253V42.4087Z" fill="#F14338"/>
<path d="M762.476 156.029H755.844V162.662H762.476V156.029Z" fill="#F14338"/>
<path d="M762.476 42.4087H755.844V49.0414H762.476V42.4087Z" fill="#F14338"/>
<path d="M755.844 162.662H749.211V169.295H755.844V162.662Z" fill="#F14338"/>
<path d="M755.844 35.6323H749.211V42.2649H755.844V35.6323Z" fill="#F14338"/>
<path d="M749.211 162.662H742.578V169.295H749.211V162.662Z" fill="#F14338"/>
<path d="M749.211 35.6323H742.578V42.2649H749.211V35.6323Z" fill="#F14338"/>
<path d="M742.433 162.662H735.801V169.295H742.433V162.662Z" fill="#F14338"/>
<path d="M742.433 35.6323H735.801V42.2649H742.433V35.6323Z" fill="#F14338"/>
<path d="M735.801 169.439H729.169V176.072H735.801V169.439Z" fill="#F14338"/>
<path d="M735.801 29H729.169V35.6327H735.801V29Z" fill="#F14338"/>
<path d="M729.024 169.439H722.392V176.072H729.024V169.439Z" fill="#F14338"/>
<path d="M729.024 29H722.392V35.6327H729.024V29Z" fill="#F14338"/>
<path d="M722.391 169.439H715.759V176.072H722.391V169.439Z" fill="#F14338"/>
<path d="M722.391 29H715.759V35.6327H722.391V29Z" fill="#F14338"/>
<path d="M715.759 169.439H709.126V176.072H715.759V169.439Z" fill="#F14338"/>
<path d="M715.759 29H709.126V35.6327H715.759V29Z" fill="#F14338"/>
<path d="M708.982 162.662H702.35V169.295H708.982V162.662Z" fill="#F14338"/>
<path d="M708.982 35.6323H702.35V42.2649H708.982V35.6323Z" fill="#F14338"/>
<path d="M702.349 162.662H695.717V169.295H702.349V162.662Z" fill="#F14338"/>
<path d="M702.349 35.6323H695.717V42.2649H702.349V35.6323Z" fill="#F14338"/>
<path d="M695.717 162.662H689.084V169.295H695.717V162.662Z" fill="#F14338"/>
<path d="M695.717 35.6323H689.084V42.2649H695.717V35.6323Z" fill="#F14338"/>
<path d="M688.94 156.029H682.308V162.662H688.94V156.029Z" fill="#F14338"/>
<path d="M688.94 42.4087H682.308V49.0414H688.94V42.4087Z" fill="#F14338"/>
<path d="M682.307 156.029H675.675V162.662H682.307V156.029Z" fill="#F14338"/>
<path d="M682.307 42.4087H675.675V49.0414H682.307V42.4087Z" fill="#F14338"/>
<path d="M675.675 149.253H669.042V155.886H675.675V149.253Z" fill="#F14338"/>
<path d="M668.898 142.62H662.265V149.252H668.898V142.62Z" fill="#F14338"/>
<path d="M669 56H662V63H669V56Z" fill="#F14338"/>
<path d="M662.265 135.988H655.633V142.62H662.265V135.988Z" fill="#F14338"/>
<path d="M662.265 129.21H655.633V135.843H662.265V129.21Z" fill="#F14338"/>
<path d="M662.265 69.084H655.633V75.7166H662.265V69.084Z" fill="#F14338"/>
<path d="M662.265 62.4517H655.633V69.0843H662.265V62.4517Z" fill="#F14338"/>
<path d="M655.633 122.577H649V129.21H655.633V122.577Z" fill="#F14338"/>
<path d="M655.633 115.944H649V122.577H655.633V115.944Z" fill="#F14338"/>
<path d="M655.633 109.168H649V115.801H655.633V109.168Z" fill="#F14338"/>
<path d="M655.633 102.536H649V109.168H655.633V102.536Z" fill="#F14338"/>
<path d="M655.633 95.9028H649V102.535H655.633V95.9028Z" fill="#F14338"/>
<path d="M655.633 89.1265H649V95.7591H655.633V89.1265Z" fill="#F14338"/>
<path d="M655.633 82.4937H649V89.1263H655.633V82.4937Z" fill="#F14338"/>
<path d="M655.633 75.7163H649V82.349H655.633V75.7163Z" fill="#F14338"/>
<path d="M683.4 70.4H690.533V77.5334H683.4V70.4Z" fill="#F14338"/>
<path d="M690.533 70.4V77.5334H683.4V70.4H690.533ZM697.667 77.5334V84.6667H690.533V77.5334H697.667ZM711.933 91.8V98.9334H704.8V91.8H711.933Z" fill="#F14338"/>
<path d="M733.333 120.333H740.467V127.467H733.333V120.333Z" fill="#F14338"/>
<path d="M719.067 98.9334V106.067H711.933V98.9334H719.067ZM726.2 106.067V113.2H719.067V106.067H726.2ZM733.333 113.2V120.333H726.2V113.2H733.333ZM740.467 120.333V127.467H733.333V120.333H740.467ZM754.733 134.6V141.733H747.6V134.6H754.733Z" fill="#F14338"/>
<path d="M669 55.9999H676.133V63.1332H669V55.9999Z" fill="#F14338"/>
<path d="M726.2 106.067V98.9334H719.067V106.067H726.2Z" fill="#F14338"/>
<path d="M690.4 70.4H697.533V77.5333H690.4V70.4Z" fill="#F14338"/>
<path d="M676.133 49V56.1333H669V49H676.133ZM683.267 56.1333V63.2667H676.133V56.1333H683.267ZM690.4 63.2667V70.4H683.267V63.2667H690.4ZM697.533 70.4V77.5333H690.4V70.4H697.533ZM704.667 77.5333V84.6667H697.533V77.5333H704.667ZM711.8 84.6667V91.8H704.667V84.6667H711.8ZM718.933 91.8V98.9333H711.8V91.8H718.933Z" fill="#F14338"/>
<path d="M740.333 120.333H747.467V127.467H740.333V120.333Z" fill="#F14338"/>
<path d="M733.2 106.067V113.2H726.067V106.067H733.2ZM740.333 113.2V120.333H733.2V113.2H740.333ZM747.467 120.333V127.467H740.333V120.333H747.467ZM754.6 127.467V134.6H747.467V127.467H754.6ZM761.733 134.6V141.733H754.6V134.6H761.733ZM768.867 141.733V148.867H761.733V141.733H768.867Z" fill="#F14338"/>
<path d="M776 156V148.867H768.867V156H776Z" fill="#F14338"/>
<path d="M776 148.867V141.733H768.867V148.867H776Z" fill="#F14338"/>
<path d="M526.176 27.1631L521.229 26.208L518.356 41.0885L523.303 42.0435L526.176 27.1631Z" fill="#333333"/>
<path d="M544.813 39.4913L532.288 47.9873L535.109 52.1699L547.634 43.6739L544.813 39.4913Z" fill="#333333"/>
<path d="M552.103 65.6118L537.264 62.7466L536.306 67.7066L551.146 70.5718L552.103 65.6118Z" fill="#333333"/>
<path d="M499.342 30.712L495.167 33.5439L503.629 46.0921L507.804 43.2602L499.342 30.712Z" fill="#333333"/>
<path d="M497.692 55.106L482.852 52.2407L481.894 57.2007L496.734 60.066L497.692 55.106Z" fill="#333333"/>
<path d="M498.889 70.6427L486.364 79.1387L489.184 83.3213L501.709 74.8253L498.889 70.6427Z" fill="#333333"/>
<path d="M487.287 109.825L482.249 109.793L482.176 119.895L487.214 119.927L487.287 109.825Z" fill="#333333"/>
<path d="M492.252 119.959L487.214 119.927L487.177 124.978L492.215 125.01L492.252 119.959Z" fill="#333333"/>
<path d="M568.009 95.179L562.971 95.1473L562.934 100.198L567.972 100.23L568.009 95.179Z" fill="#333333"/>
<path d="M537.849 84.8906L537.664 110.146L542.702 110.178L542.851 89.9737L552.927 90.0377L552.964 84.9868L537.849 84.8906Z" fill="#333333"/>
<path d="M527.81 79.7755L527.958 59.5712L522.92 59.5395L522.957 54.4881L512.88 54.424L512.843 59.4754L522.92 59.5395L522.549 110.05L527.587 110.082L527.773 84.8269L537.849 84.8905L537.886 79.8396L527.81 79.7755Z" fill="#333333"/>
<path d="M507.434 109.954L502.396 109.922L502.359 114.973L507.397 115.005L507.286 130.158L512.324 130.191L512.843 59.4755L507.805 59.4432L507.434 109.954Z" fill="#333333"/>
<path d="M502.439 104.869L487.324 104.774L487.287 109.825L502.402 109.92L502.439 104.869Z" fill="#333333"/>
<path d="M497.246 125.044L492.208 125.011L492.134 135.113L497.172 135.146L497.246 125.044Z" fill="#333333"/>
<path d="M507.175 145.311L502.137 145.28L502.211 135.177L497.172 135.146L497.098 145.248L502.137 145.28L502.063 155.382L507.101 155.414L507.175 145.312L507.175 145.311Z" fill="#333333"/>
<path d="M512.148 155.443L507.109 155.411L507.073 160.462L512.111 160.494L512.148 155.443Z" fill="#333333"/>
<path d="M552.927 90.0377L552.779 110.242L557.817 110.274L557.928 95.1208L562.966 95.153L563.004 90.1017L552.927 90.0377Z" fill="#333333"/>
<path d="M573.01 100.261L567.972 100.23L567.679 140.638L572.717 140.67L573.01 100.261Z" fill="#333333"/>
<path d="M562.522 155.766L557.484 155.734L557.373 170.887L517.066 170.631L517.14 160.529L512.102 160.497L511.991 175.65L562.374 175.97L562.522 155.766L567.56 155.798L567.672 140.645L562.633 140.613L562.522 155.766Z" fill="#333333"/>
<path d="M487.282 109.826L502.396 109.922L502.359 114.973L507.397 115.005L507.287 130.158L512.325 130.19L512.843 59.4753L522.92 59.5394L522.549 110.05L527.587 110.082L527.773 84.8268L537.85 84.8904L537.664 110.146L542.703 110.178L542.851 89.9735L552.927 90.0375L552.779 110.242L557.817 110.274L557.929 95.1206L562.967 95.1529L562.93 100.204L567.968 100.236L567.672 140.645L562.633 140.612L562.522 155.766L557.484 155.734L557.373 170.887L517.067 170.631L517.141 160.529L512.102 160.496L512.14 155.446L507.101 155.413L507.175 145.311L502.137 145.279L502.211 135.177L497.173 135.145L497.247 125.043L492.209 125.011L492.245 119.96L487.207 119.928L487.282 109.826Z" fill="#E8C8AF"/>
</svg>
