<svg width="309" height="46" viewBox="0 0 309 46" fill="none" xmlns="http://www.w3.org/2000/svg">
<path d="M0.284091 45V1.36364H26.6193V6.05114H5.56818V20.7955H25.2557V25.483H5.56818V40.3125H26.9602V45H0.284091ZM36.1435 45V1.36364H41.4276V40.3125H61.7116V45H36.1435ZM69.8935 45V1.36364H96.2287V6.05114H75.1776V20.7955H94.8651V25.483H75.1776V40.3125H96.5696V45H69.8935ZM105.753 1.36364H112.06L126.889 37.5852H127.401L142.23 1.36364H148.537V45H143.594V11.8466H143.168L129.531 45H124.759L111.122 11.8466H110.696V45H105.753V1.36364ZM159.132 45V1.36364H185.467V6.05114H164.416V20.7955H184.103V25.483H164.416V40.3125H185.808V45H159.132ZM229.593 1.36364V45H224.48L200.701 10.7386H200.275V45H194.991V1.36364H200.105L223.968 35.7102H224.395V1.36364H229.593ZM237.781 6.05114V1.36364H270.508V6.05114H256.786V45H251.502V6.05114H237.781ZM302.527 12.2727C302.271 10.1136 301.234 8.4375 299.416 7.24432C297.598 6.05114 295.368 5.45454 292.725 5.45454C290.794 5.45454 289.103 5.76704 287.654 6.39204C286.22 7.01704 285.098 7.87642 284.288 8.97017C283.493 10.0639 283.095 11.3068 283.095 12.6989C283.095 13.8636 283.372 14.8651 283.926 15.7031C284.494 16.527 285.218 17.2159 286.099 17.7699C286.98 18.3097 287.903 18.7571 288.869 19.1122C289.835 19.4531 290.723 19.7301 291.532 19.9432L295.964 21.1364C297.1 21.4347 298.365 21.8466 299.757 22.3722C301.163 22.8977 302.505 23.6151 303.784 24.5241C305.076 25.419 306.142 26.5696 306.98 27.9759C307.818 29.3821 308.237 31.108 308.237 33.1534C308.237 35.5114 307.619 37.642 306.383 39.5455C305.162 41.4489 303.372 42.9616 301.014 44.0838C298.67 45.206 295.822 45.767 292.47 45.767C289.345 45.767 286.639 45.2628 284.352 44.2543C282.079 43.2457 280.289 41.8395 278.983 40.0355C277.69 38.2315 276.958 36.1364 276.788 33.75H282.243C282.385 35.3977 282.939 36.7614 283.904 37.8409C284.885 38.9062 286.12 39.7017 287.612 40.2273C289.118 40.7386 290.737 40.9943 292.47 40.9943C294.487 40.9943 296.298 40.6676 297.903 40.0142C299.508 39.3466 300.779 38.4233 301.717 37.2443C302.654 36.0511 303.123 34.6591 303.123 33.0682C303.123 31.6193 302.718 30.4403 301.909 29.5312C301.099 28.6222 300.034 27.8835 298.713 27.3153C297.392 26.7472 295.964 26.25 294.43 25.8239L289.061 24.2898C285.652 23.3097 282.953 21.9105 280.964 20.0923C278.975 18.2741 277.981 15.8949 277.981 12.9545C277.981 10.5114 278.642 8.38068 279.963 6.5625C281.298 4.73011 283.088 3.30966 285.332 2.30114C287.591 1.27841 290.112 0.767044 292.896 0.767044C295.708 0.767044 298.208 1.27131 300.396 2.27983C302.583 3.27415 304.316 4.63778 305.595 6.37074C306.887 8.10369 307.569 10.071 307.64 12.2727H302.527Z" fill="#9D9BFF"/>
</svg>
