<svg width="247" height="46" viewBox="0 0 247 46" fill="none" xmlns="http://www.w3.org/2000/svg">
<path d="M0.284091 45V1.36364H26.4489V6.05114H5.56818V20.7955H24.4886V25.483H5.56818V45H0.284091ZM31.8395 45H26.2997L42.3224 1.36364H47.777L63.7997 45H58.2599L45.2202 8.26704H44.8793L31.8395 45ZM33.8849 27.9545H56.2145V32.642H33.8849V27.9545ZM68.2848 1.36364L81.2393 38.0966H81.7507L94.7053 1.36364H100.245L84.2223 45H78.7678L62.745 1.36364H68.2848ZM112.326 1.36364V45H107.042V1.36364H112.326ZM158.034 15H152.75C152.438 13.4801 151.891 12.1449 151.11 10.9943C150.343 9.84375 149.405 8.87784 148.297 8.09659C147.203 7.30114 145.989 6.70455 144.654 6.30682C143.319 5.90909 141.926 5.71023 140.478 5.71023C137.836 5.71023 135.442 6.37784 133.297 7.71307C131.167 9.0483 129.469 11.0156 128.205 13.6151C126.955 16.2145 126.33 19.4034 126.33 23.1818C126.33 26.9602 126.955 30.1491 128.205 32.7486C129.469 35.348 131.167 37.3153 133.297 38.6506C135.442 39.9858 137.836 40.6534 140.478 40.6534C141.926 40.6534 143.319 40.4545 144.654 40.0568C145.989 39.6591 147.203 39.0696 148.297 38.2884C149.405 37.4929 150.343 36.5199 151.11 35.3693C151.891 34.2045 152.438 32.8693 152.75 31.3636H158.034C157.637 33.5937 156.912 35.5895 155.861 37.3509C154.81 39.1122 153.503 40.6108 151.941 41.8466C150.378 43.0682 148.624 43.9986 146.678 44.6378C144.746 45.277 142.679 45.5966 140.478 45.5966C136.756 45.5966 133.446 44.6875 130.549 42.8693C127.651 41.0511 125.371 38.4659 123.709 35.1136C122.047 31.7614 121.216 27.7841 121.216 23.1818C121.216 18.5795 122.047 14.6023 123.709 11.25C125.371 7.89773 127.651 5.3125 130.549 3.49432C133.446 1.67614 136.756 0.767044 140.478 0.767044C142.679 0.767044 144.746 1.08665 146.678 1.72585C148.624 2.36506 150.378 3.30256 151.941 4.53835C153.503 5.75994 154.81 7.25142 155.861 9.01278C156.912 10.7599 157.637 12.7557 158.034 15ZM203.391 23.1818C203.391 27.7841 202.56 31.7614 200.898 35.1136C199.237 38.4659 196.957 41.0511 194.059 42.8693C191.161 44.6875 187.852 45.5966 184.13 45.5966C180.408 45.5966 177.099 44.6875 174.201 42.8693C171.303 41.0511 169.023 38.4659 167.362 35.1136C165.7 31.7614 164.869 27.7841 164.869 23.1818C164.869 18.5795 165.7 14.6023 167.362 11.25C169.023 7.89773 171.303 5.3125 174.201 3.49432C177.099 1.67614 180.408 0.767044 184.13 0.767044C187.852 0.767044 191.161 1.67614 194.059 3.49432C196.957 5.3125 199.237 7.89773 200.898 11.25C202.56 14.6023 203.391 18.5795 203.391 23.1818ZM198.278 23.1818C198.278 19.4034 197.646 16.2145 196.381 13.6151C195.131 11.0156 193.434 9.0483 191.289 7.71307C189.158 6.37784 186.772 5.71023 184.13 5.71023C181.488 5.71023 179.094 6.37784 176.95 7.71307C174.819 9.0483 173.121 11.0156 171.857 13.6151C170.607 16.2145 169.982 19.4034 169.982 23.1818C169.982 26.9602 170.607 30.1491 171.857 32.7486C173.121 35.348 174.819 37.3153 176.95 38.6506C179.094 39.9858 181.488 40.6534 184.13 40.6534C186.772 40.6534 189.158 39.9858 191.289 38.6506C193.434 37.3153 195.131 35.348 196.381 32.7486C197.646 30.1491 198.278 26.9602 198.278 23.1818ZM246.879 1.36364V45H241.765L217.987 10.7386H217.56V45H212.276V1.36364H217.39L241.254 35.7102H241.68V1.36364H246.879Z" fill="white"/>
</svg>
