<svg width="181" height="46" viewBox="0 0 181 46" fill="none" xmlns="http://www.w3.org/2000/svg">
<path d="M5.56818 1.36364V45H0.284091V1.36364H5.56818ZM51.2766 15H45.9925C45.68 13.4801 45.1332 12.1449 44.3519 10.9943C43.5849 9.84375 42.6474 8.87784 41.5394 8.09659C40.4457 7.30114 39.2312 6.70455 37.896 6.30682C36.5607 5.90909 35.1687 5.71023 33.7198 5.71023C31.0778 5.71023 28.6843 6.37784 26.5394 7.71307C24.4087 9.0483 22.7113 11.0156 21.4471 13.6151C20.1971 16.2145 19.5721 19.4034 19.5721 23.1818C19.5721 26.9602 20.1971 30.1491 21.4471 32.7486C22.7113 35.348 24.4087 37.3153 26.5394 38.6506C28.6843 39.9858 31.0778 40.6534 33.7198 40.6534C35.1687 40.6534 36.5607 40.4545 37.896 40.0568C39.2312 39.6591 40.4457 39.0696 41.5394 38.2884C42.6474 37.4929 43.5849 36.5199 44.3519 35.3693C45.1332 34.2045 45.68 32.8693 45.9925 31.3636H51.2766C50.8789 33.5937 50.1545 35.5895 49.1033 37.3509C48.0522 39.1122 46.7454 40.6108 45.1829 41.8466C43.6204 43.0682 41.8661 43.9986 39.9201 44.6378C37.9883 45.277 35.9215 45.5966 33.7198 45.5966C29.9982 45.5966 26.6886 44.6875 23.7908 42.8693C20.8931 41.0511 18.6133 38.4659 16.9513 35.1136C15.2894 31.7614 14.4585 27.7841 14.4585 23.1818C14.4585 18.5795 15.2894 14.6023 16.9513 11.25C18.6133 7.89773 20.8931 5.3125 23.7908 3.49432C26.6886 1.67614 29.9982 0.767044 33.7198 0.767044C35.9215 0.767044 37.9883 1.08665 39.9201 1.72585C41.8661 2.36506 43.6204 3.30256 45.1829 4.53835C46.7454 5.75994 48.0522 7.25142 49.1033 9.01278C50.1545 10.7599 50.8789 12.7557 51.2766 15ZM96.6335 23.1818C96.6335 27.7841 95.8026 31.7614 94.1406 35.1136C92.4787 38.4659 90.1989 41.0511 87.3011 42.8693C84.4034 44.6875 81.0938 45.5966 77.3722 45.5966C73.6506 45.5966 70.3409 44.6875 67.4432 42.8693C64.5455 41.0511 62.2656 38.4659 60.6037 35.1136C58.9418 31.7614 58.1108 27.7841 58.1108 23.1818C58.1108 18.5795 58.9418 14.6023 60.6037 11.25C62.2656 7.89773 64.5455 5.3125 67.4432 3.49432C70.3409 1.67614 73.6506 0.767044 77.3722 0.767044C81.0938 0.767044 84.4034 1.67614 87.3011 3.49432C90.1989 5.3125 92.4787 7.89773 94.1406 11.25C95.8026 14.6023 96.6335 18.5795 96.6335 23.1818ZM91.5199 23.1818C91.5199 19.4034 90.8878 16.2145 89.6236 13.6151C88.3736 11.0156 86.6761 9.0483 84.5312 7.71307C82.4006 6.37784 80.0142 5.71023 77.3722 5.71023C74.7301 5.71023 72.3366 6.37784 70.1918 7.71307C68.0611 9.0483 66.3636 11.0156 65.0994 13.6151C63.8494 16.2145 63.2244 19.4034 63.2244 23.1818C63.2244 26.9602 63.8494 30.1491 65.0994 32.7486C66.3636 35.348 68.0611 37.3153 70.1918 38.6506C72.3366 39.9858 74.7301 40.6534 77.3722 40.6534C80.0142 40.6534 82.4006 39.9858 84.5312 38.6506C86.6761 37.3153 88.3736 35.348 89.6236 32.7486C90.8878 30.1491 91.5199 26.9602 91.5199 23.1818ZM140.121 1.36364V45H135.007L111.229 10.7386H110.803V45H105.518V1.36364H110.632L134.496 35.7102H134.922V1.36364H140.121ZM174.558 12.2727C174.302 10.1136 173.265 8.4375 171.447 7.24432C169.629 6.05114 167.399 5.45454 164.757 5.45454C162.825 5.45454 161.135 5.76704 159.686 6.39204C158.251 7.01704 157.129 7.87642 156.319 8.97017C155.524 10.0639 155.126 11.3068 155.126 12.6989C155.126 13.8636 155.403 14.8651 155.957 15.7031C156.525 16.527 157.25 17.2159 158.13 17.7699C159.011 18.3097 159.934 18.7571 160.9 19.1122C161.866 19.4531 162.754 19.7301 163.564 19.9432L167.995 21.1364C169.132 21.4347 170.396 21.8466 171.788 22.3722C173.194 22.8977 174.537 23.6151 175.815 24.5241C177.108 25.419 178.173 26.5696 179.011 27.9759C179.849 29.3821 180.268 31.108 180.268 33.1534C180.268 35.5114 179.65 37.642 178.414 39.5455C177.193 41.4489 175.403 42.9616 173.045 44.0838C170.701 45.206 167.853 45.767 164.501 45.767C161.376 45.767 158.67 45.2628 156.383 44.2543C154.11 43.2457 152.321 41.8395 151.014 40.0355C149.721 38.2315 148.99 36.1364 148.819 33.75H154.274C154.416 35.3977 154.97 36.7614 155.936 37.8409C156.916 38.9062 158.152 39.7017 159.643 40.2273C161.149 40.7386 162.768 40.9943 164.501 40.9943C166.518 40.9943 168.329 40.6676 169.934 40.0142C171.539 39.3466 172.811 38.4233 173.748 37.2443C174.686 36.0511 175.154 34.6591 175.154 33.0682C175.154 31.6193 174.75 30.4403 173.94 29.5312C173.13 28.6222 172.065 27.8835 170.744 27.3153C169.423 26.7472 167.995 26.25 166.461 25.8239L161.092 24.2898C157.683 23.3097 154.984 21.9105 152.995 20.0923C151.007 18.2741 150.012 15.8949 150.012 12.9545C150.012 10.5114 150.673 8.38068 151.994 6.5625C153.329 4.73011 155.119 3.30966 157.363 2.30114C159.622 1.27841 162.143 0.767044 164.927 0.767044C167.74 0.767044 170.24 1.27131 172.427 2.27983C174.615 3.27415 176.348 4.63778 177.626 6.37074C178.919 8.10369 179.6 10.071 179.672 12.2727H174.558Z" fill="#9D9BFF"/>
</svg>
