<svg width="260" height="46" viewBox="0 0 260 46" fill="none" xmlns="http://www.w3.org/2000/svg">
<path d="M0.284091 45V1.36364H15.0284C18.4517 1.36364 21.25 1.98153 23.4233 3.21733C25.6108 4.43892 27.2301 6.09375 28.2812 8.18182C29.3324 10.2699 29.858 12.5994 29.858 15.1705C29.858 17.7415 29.3324 20.0781 28.2812 22.1804C27.2443 24.2827 25.6392 25.9588 23.4659 27.2088C21.2926 28.4446 18.5085 29.0625 15.1136 29.0625H4.54545V24.375H14.9432C17.2869 24.375 19.169 23.9702 20.5895 23.1605C22.0099 22.3509 23.0398 21.2571 23.679 19.8793C24.3324 18.4872 24.6591 16.9176 24.6591 15.1705C24.6591 13.4233 24.3324 11.8608 23.679 10.483C23.0398 9.10511 22.0028 8.02557 20.5682 7.24432C19.1335 6.44886 17.2301 6.05114 14.858 6.05114H5.56818V45H0.284091ZM75.1882 23.1818C75.1882 27.7841 74.3572 31.7614 72.6953 35.1136C71.0334 38.4659 68.7536 41.0511 65.8558 42.8693C62.9581 44.6875 59.6484 45.5966 55.9268 45.5966C52.2053 45.5966 48.8956 44.6875 45.9979 42.8693C43.1001 41.0511 40.8203 38.4659 39.1584 35.1136C37.4964 31.7614 36.6655 27.7841 36.6655 23.1818C36.6655 18.5795 37.4964 14.6023 39.1584 11.25C40.8203 7.89773 43.1001 5.3125 45.9979 3.49432C48.8956 1.67614 52.2053 0.767044 55.9268 0.767044C59.6484 0.767044 62.9581 1.67614 65.8558 3.49432C68.7536 5.3125 71.0334 7.89773 72.6953 11.25C74.3572 14.6023 75.1882 18.5795 75.1882 23.1818ZM70.0746 23.1818C70.0746 19.4034 69.4425 16.2145 68.1783 13.6151C66.9283 11.0156 65.2308 9.0483 63.0859 7.71307C60.9553 6.37784 58.5689 5.71023 55.9268 5.71023C53.2848 5.71023 50.8913 6.37784 48.7464 7.71307C46.6158 9.0483 44.9183 11.0156 43.6541 13.6151C42.4041 16.2145 41.7791 19.4034 41.7791 23.1818C41.7791 26.9602 42.4041 30.1491 43.6541 32.7486C44.9183 35.348 46.6158 37.3153 48.7464 38.6506C50.8913 39.9858 53.2848 40.6534 55.9268 40.6534C58.5689 40.6534 60.9553 39.9858 63.0859 38.6506C65.2308 37.3153 66.9283 35.348 68.1783 32.7486C69.4425 30.1491 70.0746 26.9602 70.0746 23.1818ZM84.0732 45V1.36364H98.8175C102.241 1.36364 105.039 1.98153 107.212 3.21733C109.4 4.43892 111.019 6.09375 112.07 8.18182C113.121 10.2699 113.647 12.5994 113.647 15.1705C113.647 17.7415 113.121 20.0781 112.07 22.1804C111.033 24.2827 109.428 25.9588 107.255 27.2088C105.082 28.4446 102.298 29.0625 98.9027 29.0625H88.3345V24.375H98.7322C101.076 24.375 102.958 23.9702 104.379 23.1605C105.799 22.3509 106.829 21.2571 107.468 19.8793C108.121 18.4872 108.448 16.9176 108.448 15.1705C108.448 13.4233 108.121 11.8608 107.468 10.483C106.829 9.10511 105.792 8.02557 104.357 7.24432C102.923 6.44886 101.019 6.05114 98.647 6.05114H89.3572V45H84.0732ZM137.473 20.8381V25.5256H118.382V20.8381H137.473ZM175.639 1.36364H180.923V30.2557C180.923 33.2386 180.22 35.902 178.814 38.2457C177.422 40.5753 175.455 42.4148 172.912 43.7642C170.369 45.0994 167.386 45.767 163.963 45.767C160.54 45.767 157.557 45.0994 155.014 43.7642C152.472 42.4148 150.497 40.5753 149.091 38.2457C147.699 35.902 147.003 33.2386 147.003 30.2557V1.36364H152.287V29.8295C152.287 31.9602 152.756 33.8565 153.693 35.5185C154.631 37.1662 155.966 38.4659 157.699 39.4176C159.446 40.3551 161.534 40.8239 163.963 40.8239C166.392 40.8239 168.48 40.3551 170.227 39.4176C171.974 38.4659 173.31 37.1662 174.233 35.5185C175.17 33.8565 175.639 31.9602 175.639 29.8295V1.36364ZM191.475 45V1.36364H206.22C209.643 1.36364 212.441 1.98153 214.615 3.21733C216.802 4.43892 218.422 6.09375 219.473 8.18182C220.524 10.2699 221.049 12.5994 221.049 15.1705C221.049 17.7415 220.524 20.0781 219.473 22.1804C218.436 24.2827 216.831 25.9588 214.657 27.2088C212.484 28.4446 209.7 29.0625 206.305 29.0625H195.737V24.375H206.135C208.478 24.375 210.36 23.9702 211.781 23.1605C213.201 22.3509 214.231 21.2571 214.87 19.8793C215.524 18.4872 215.85 16.9176 215.85 15.1705C215.85 13.4233 215.524 11.8608 214.87 10.483C214.231 9.10511 213.194 8.02557 211.76 7.24432C210.325 6.44886 208.422 6.05114 206.049 6.05114H196.76V45H191.475ZM253.425 12.2727C253.169 10.1136 252.132 8.4375 250.314 7.24432C248.496 6.05114 246.266 5.45454 243.624 5.45454C241.692 5.45454 240.002 5.76704 238.553 6.39204C237.118 7.01704 235.996 7.87642 235.186 8.97017C234.391 10.0639 233.993 11.3068 233.993 12.6989C233.993 13.8636 234.27 14.8651 234.824 15.7031C235.392 16.527 236.117 17.2159 236.998 17.7699C237.878 18.3097 238.801 18.7571 239.767 19.1122C240.733 19.4531 241.621 19.7301 242.431 19.9432L246.863 21.1364C247.999 21.4347 249.263 21.8466 250.655 22.3722C252.061 22.8977 253.404 23.6151 254.682 24.5241C255.975 25.419 257.04 26.5696 257.878 27.9759C258.716 29.3821 259.135 31.108 259.135 33.1534C259.135 35.5114 258.517 37.642 257.282 39.5455C256.06 41.4489 254.27 42.9616 251.912 44.0838C249.569 45.206 246.721 45.767 243.368 45.767C240.243 45.767 237.537 45.2628 235.25 44.2543C232.978 43.2457 231.188 41.8395 229.881 40.0355C228.588 38.2315 227.857 36.1364 227.686 33.75H233.141C233.283 35.3977 233.837 36.7614 234.803 37.8409C235.783 38.9062 237.019 39.7017 238.51 40.2273C240.016 40.7386 241.635 40.9943 243.368 40.9943C245.385 40.9943 247.196 40.6676 248.801 40.0142C250.407 39.3466 251.678 38.4233 252.615 37.2443C253.553 36.0511 254.022 34.6591 254.022 33.0682C254.022 31.6193 253.617 30.4403 252.807 29.5312C251.998 28.6222 250.932 27.8835 249.611 27.3153C248.29 26.7472 246.863 26.25 245.328 25.8239L239.959 24.2898C236.55 23.3097 233.851 21.9105 231.863 20.0923C229.874 18.2741 228.88 15.8949 228.88 12.9545C228.88 10.5114 229.54 8.38068 230.861 6.5625C232.196 4.73011 233.986 3.30966 236.23 2.30114C238.489 1.27841 241.01 0.767044 243.794 0.767044C246.607 0.767044 249.107 1.27131 251.294 2.27983C253.482 3.27415 255.215 4.63778 256.493 6.37074C257.786 8.10369 258.468 10.071 258.539 12.2727H253.425Z" fill="#9D9BFF"/>
</svg>
