<svg width="275" height="92" viewBox="0 0 275 92" fill="none" xmlns="http://www.w3.org/2000/svg">
<path d="M6.5 10.5V0H9.5V4.5H14V0H17V10.5H14V6H9.5V10.5H6.5ZM20 10.5V9H18.5V1.5H20V0H27.5V1.5H29V9H27.5V10.5H20ZM21.5 9H26V1.5H21.5V9ZM42.5 10.5V0H45.5V4.5H50V0H53V10.5H50V6H45.5V10.5H42.5ZM54.5 10.5V0H65V1.5H57.5V4.5H63.5V6H57.5V9H65V10.5H54.5ZM78.5 10.5V0H87.5V1.5H89V4.5H87.5V6H89V9H87.5V10.5H78.5ZM81.5 4.5H86V1.5H81.5V4.5ZM81.5 9H86V6H81.5V9ZM93.5 10.5V9H92V7.5H90.5V3H92V1.5H93.5V0H99.5V1.5H101V3H98V1.5H95V3H93.5V7.5H95V9H98V7.5H101V9H99.5V10.5H93.5ZM102.5 10.5V0H113V1.5H105.5V4.5H111.5V6H105.5V9H113V10.5H102.5ZM126.5 10.5V0H129.5V6H131V4.5H132.5V3H134V0H137V10.5H134V6H132.5V7.5H131V9H129.5V10.5H126.5ZM138.5 10.5V0H141.5V4.5H146V0H149V10.5H146V6H141.5V10.5H138.5ZM152 10.5V9H150.5V1.5H152V0H159.5V1.5H161V9H159.5V10.5H152ZM153.5 9H158V1.5H153.5V9ZM162.5 10.5V0H173V10.5H170V1.5H165.5V10.5H162.5ZM174.5 10.5V7.5H176V6H177.5V0H185V10.5H182V1.5H179V9H177.5V10.5H174.5ZM186.5 10.5V3H188V1.5H189.5V0H194V1.5H195.5V3H197V10.5H194V7.5H189.5V10.5H186.5ZM189.5 6H194V3H192.5V1.5H191V3H189.5V6ZM198.5 10.5V0H201.5V4.5H206V0H209V10.5H206V6H201.5V10.5H198.5ZM210.5 10.5V0H221V1.5H213.5V4.5H219.5V6H213.5V9H221V10.5H210.5ZM227 10.5V1.5H224V0H233V1.5H230V10.5H227ZM234.5 10.5V9H236V7.5H237.5V6H234.5V1.5H236V0H245V10.5H242V7.5H239V10.5H234.5ZM239 6H242V1.5H237.5V4.5H239V6ZM246.5 10.5V0H249.5V4.5H254V0H257V10.5H254V6H249.5V10.5H246.5ZM258.5 10.5V0H269V1.5H261.5V4.5H267.5V6H261.5V9H269V10.5H258.5ZM26 30.5V29H24.5V27.5H27.5V29H32V26H27.5V24.5H32V21.5H27.5V23H24.5V21.5H26V20H33.5V21.5H35V24.5H33.5V26H35V29H33.5V30.5H26ZM36.5 30.5V27.5H38V26H39.5V20H47V30.5H44V21.5H41V29H39.5V30.5H36.5ZM48.5 30.5V20H51.5V23H54.5V30.5H48.5ZM56 30.5V20H59V30.5H56ZM51.5 29H53V24.5H51.5V29ZM60.5 30.5V20H71V21.5H63.5V24.5H69.5V26H63.5V29H71V30.5H60.5ZM75.5 30.5V27.5H78.5V30.5H75.5ZM101 23H102.5V24.5H104V26H105.5V29H107V30.5H104V29H102.5V26H99.5V30.5H96.5V20H99.5V24.5H101V23ZM107 20V21.5H105.5V23H102.5V21.5H104V20H107ZM113 30.5V21.5H110V20H119V21.5H116V30.5H113ZM122 30.5V29H120.5V21.5H122V20H129.5V21.5H131V29H129.5V30.5H122ZM123.5 29H128V21.5H123.5V29ZM134 26V24.5H143V26H134ZM149 30.5V21.5H146V20H155V21.5H152V30.5H149ZM158 30.5V29H156.5V21.5H158V20H165.5V21.5H167V29H165.5V30.5H158ZM159.5 29H164V21.5H159.5V29ZM180.5 30.5V20H191V30.5H188V21.5H183.5V30.5H180.5ZM192.5 30.5V20H201.5V21.5H203V26H201.5V27.5H195.5V30.5H192.5ZM195.5 26H200V21.5H195.5V26ZM206 30.5V29H204.5V21.5H206V20H213.5V21.5H215V29H213.5V30.5H206ZM207.5 29H212V21.5H207.5V29ZM219.5 30.5V29H218V27.5H216.5V23H218V21.5H219.5V20H225.5V21.5H227V23H224V21.5H221V23H219.5V27.5H221V29H224V27.5H227V29H225.5V30.5H219.5ZM233 30.5V21.5H230V20H239V21.5H236V30.5H233ZM242 30.5V29H240.5V21.5H242V20H249.5V21.5H251V29H249.5V30.5H242ZM243.5 29H248V21.5H243.5V29ZM8 50.5V49H6.5V47.5H9.5V49H14V46H8V44.5H6.5V40H9.5V44.5H14V40H17V49H15.5V50.5H8ZM21.5 50.5V49H20V47.5H18.5V43H20V41.5H21.5V40H27.5V41.5H29V43H26V41.5H23V43H21.5V47.5H23V49H26V47.5H29V49H27.5V50.5H21.5ZM35 50.5V41.5H32V40H41V41.5H38V50.5H35ZM42.5 50.5V43H44V41.5H45.5V40H50V41.5H51.5V43H53V50.5H50V47.5H45.5V50.5H42.5ZM45.5 46H50V43H48.5V41.5H47V43H45.5V46ZM54.5 50.5V47.5H56V46H57.5V40H65V50.5H62V41.5H59V49H57.5V50.5H54.5ZM78.5 50.5V40H81.5V46H83V44.5H84.5V43H86V40H89V50.5H86V46H84.5V47.5H83V49H81.5V50.5H78.5ZM90.5 50.5V47.5H92V46H93.5V40H101V50.5H98V41.5H95V49H93.5V50.5H90.5ZM102.5 50.5V40H105.5V46H107V44.5H108.5V43H110V40H113V50.5H110V46H108.5V47.5H107V49H105.5V50.5H102.5ZM128 50.5V49H126.5V47.5H129.5V49H134V46H129.5V44.5H134V41.5H129.5V43H126.5V41.5H128V40H135.5V41.5H137V44.5H135.5V46H137V49H135.5V50.5H128ZM138.5 50.5V43H140V41.5H141.5V40H146V41.5H147.5V43H149V50.5H146V47.5H141.5V50.5H138.5ZM141.5 46H146V43H144.5V41.5H143V43H141.5V46ZM150.5 50.5V40H159.5V41.5H153.5V44.5H159.5V46H161V49H159.5V50.5H150.5ZM153.5 49H158V46H153.5V49ZM164 50.5V49H162.5V41.5H164V40H171.5V41.5H173V49H171.5V50.5H164ZM165.5 49H170V41.5H165.5V49ZM174.5 50.5V47.5H176V46H177.5V40H185V50.5H182V41.5H179V49H177.5V50.5H174.5ZM186.5 50.5V40H197V41.5H189.5V44.5H195.5V46H189.5V49H197V50.5H186.5ZM198.5 50.5V47.5H200V46H201.5V40H209V50.5H206V41.5H203V49H201.5V50.5H198.5ZM213.5 50.5V47.5H216.5V50.5H213.5ZM234.5 52V49H236V46H237.5V40H245V49H246.5V52H243.5V50.5H237.5V52H234.5ZM239 49H242V41.5H239V49ZM246.5 50.5V43H248V41.5H249.5V40H254V41.5H255.5V43H257V50.5H254V47.5H249.5V50.5H246.5ZM249.5 46H254V43H252.5V41.5H251V43H249.5V46ZM260 41.5V40H267.5V41.5H260ZM258.5 50.5V43H261.5V47.5H263V46H264.5V44.5H266V43H269V50.5H266V47.5H264.5V49H263V50.5H258.5ZM0.5 70.5V60H3.5V66H5V64.5H6.5V63H8V60H11V70.5H8V66H6.5V67.5H5V69H3.5V70.5H0.5ZM12.5 70.5V60H15.5V61.5H17V63H18.5V61.5H20V60H23V70.5H20V64.5H18.5V67.5H17V64.5H15.5V70.5H12.5ZM36.5 70.5V60H47V70.5H44V61.5H39.5V70.5H36.5ZM48.5 70.5V60H57.5V61.5H59V66H57.5V67.5H51.5V70.5H48.5ZM51.5 66H56V61.5H51.5V66ZM62 70.5V69H60.5V61.5H62V60H69.5V61.5H71V69H69.5V70.5H62ZM63.5 69H68V61.5H63.5V69ZM75.5 70.5V69H74V67.5H72.5V63H74V61.5H75.5V60H81.5V61.5H83V63H80V61.5H77V63H75.5V67.5H77V69H80V67.5H83V69H81.5V70.5H75.5ZM89 70.5V61.5H86V60H95V61.5H92V70.5H89ZM98 70.5V69H96.5V61.5H98V60H105.5V61.5H107V69H105.5V70.5H98ZM99.5 69H104V61.5H99.5V69ZM122 70.5V69H120.5V67.5H123.5V69H128V66H122V64.5H120.5V60H123.5V64.5H128V60H131V69H129.5V70.5H122ZM132.5 70.5V67.5H134V66H135.5V60H143V70.5H140V61.5H137V69H135.5V70.5H132.5ZM144.5 70.5V60H155V61.5H147.5V64.5H153.5V66H147.5V69H155V70.5H144.5ZM161 70.5V61.5H158V60H167V61.5H164V70.5H161ZM168.5 70.5V60H179V61.5H171.5V64.5H177.5V66H171.5V69H179V70.5H168.5ZM185 70.5V61.5H182V60H191V61.5H188V70.5H185ZM192.5 70.5V60H195.5V63H201.5V64.5H203V69H201.5V70.5H192.5ZM195.5 69H200V64.5H195.5V69ZM216.5 70.5V60H219.5V66H221V64.5H222.5V63H224V60H227V70.5H224V66H222.5V67.5H221V69H219.5V70.5H216.5ZM240.5 70.5V60H249.5V61.5H251V64.5H249.5V66H251V69H249.5V70.5H240.5ZM243.5 64.5H248V61.5H243.5V64.5ZM243.5 69H248V66H243.5V69ZM255.5 70.5V69H254V67.5H252.5V63H254V61.5H255.5V60H261.5V61.5H263V63H260V61.5H257V63H255.5V67.5H257V69H260V67.5H263V69H261.5V70.5H255.5ZM266 61.5V60H269V61.5H266ZM270.5 61.5V60H273.5V61.5H270.5ZM264.5 70.5V63H275V64.5H267.5V66H273.5V67.5H267.5V69H275V70.5H264.5ZM60.5 90.5V80H69.5V81.5H63.5V84.5H69.5V86H71V89H69.5V90.5H60.5ZM63.5 89H68V86H63.5V89ZM74 90.5V89H72.5V87.5H75.5V89H80V86H74V84.5H72.5V80H75.5V84.5H80V80H83V89H81.5V90.5H74ZM84.5 92V89H86V86H87.5V80H95V89H96.5V92H93.5V90.5H87.5V92H84.5ZM89 89H92V81.5H89V89ZM96.5 90.5V80H107V81.5H99.5V84.5H105.5V86H99.5V89H107V90.5H96.5ZM113 90.5V81.5H110V80H119V81.5H116V90.5H113ZM132.5 90.5V87.5H134V86H135.5V84.5H134V83H132.5V80H135.5V83H137V84.5H138.5V83H140V80H143V83H141.5V84.5H140V86H141.5V87.5H143V90.5H140V87.5H138.5V86H137V87.5H135.5V90.5H132.5ZM146 90.5V89H144.5V81.5H146V80H153.5V81.5H155V89H153.5V90.5H146ZM147.5 89H152V81.5H147.5V89ZM156.5 90.5V80H165.5V81.5H167V86H165.5V87.5H159.5V90.5H156.5ZM159.5 86H164V81.5H159.5V86ZM170 90.5V89H168.5V81.5H170V80H177.5V81.5H179V89H177.5V90.5H170ZM171.5 89H176V81.5H171.5V89ZM180.5 90.5V80H183.5V89H185V80H186.5V89H188V80H191V90.5H180.5ZM194 90.5V89H192.5V81.5H194V80H201.5V81.5H203V89H201.5V90.5H194ZM195.5 89H200V81.5H195.5V89ZM207.5 87.5V80H212V84.5H210.5V87.5H207.5ZM207.5 90.5V89H210.5V90.5H207.5Z" fill="white"/>
</svg>
