<svg width="117" height="137" viewBox="0 0 117 137" fill="none" xmlns="http://www.w3.org/2000/svg">
<path d="M16.36 61.8249L11.3218 61.7932L11.2484 71.8952L16.2866 71.9269L16.36 61.8249Z" fill="#333333"/>
<path d="M21.3248 71.9589L16.2866 71.9272L16.2499 76.9782L21.2881 77.0099L21.3248 71.9589Z" fill="#333333"/>
<path d="M97.0817 47.179L92.0435 47.1473L92.0068 52.1983L97.045 52.23L97.0817 47.179Z" fill="#333333"/>
<path d="M66.9222 36.8906L66.7366 62.1462L71.7752 62.178L71.9234 41.9737L82 42.0377L82.0368 36.9868L66.9222 36.8906Z" fill="#333333"/>
<path d="M56.8823 31.7755L57.0306 11.5712L51.9925 11.5395L52.0293 6.48809L41.9527 6.42403L41.9159 11.4754L51.9925 11.5395L51.622 62.0498L56.66 62.082L56.8455 36.8269L66.9222 36.8905L66.9589 31.8396L56.8823 31.7755Z" fill="#333333"/>
<path d="M36.5069 61.9541L31.4688 61.9223L31.432 66.9732L36.47 67.0054L36.3591 82.1585L41.3971 82.1907L41.9159 11.4755L36.8774 11.4432L36.5069 61.9541Z" fill="#333333"/>
<path d="M31.5114 56.8692L16.3967 56.7742L16.36 61.8252L31.4747 61.9202L31.5114 56.8692Z" fill="#333333"/>
<path d="M26.3192 77.0436L21.2812 77.0113L21.2071 87.1135L26.2451 87.1457L26.3192 77.0436Z" fill="#333333"/>
<path d="M36.2478 97.3113L31.2097 97.2796L31.2838 87.1774L26.2452 87.1456L26.1711 97.2478L31.2097 97.2796L31.1356 107.382L36.1737 107.414L36.2477 97.3118L36.2478 97.3113Z" fill="#333333"/>
<path d="M41.2203 107.443L36.1821 107.411L36.1454 112.462L41.1836 112.494L41.2203 107.443Z" fill="#333333"/>
<path d="M81.9999 42.0377L81.8516 62.242L86.8896 62.2742L87.0011 47.1208L92.0391 47.153L92.0765 42.1017L81.9999 42.0377Z" fill="#333333"/>
<path d="M102.083 52.2613L97.0449 52.2296L96.7513 92.6381L101.79 92.6698L102.083 52.2613Z" fill="#333333"/>
<path d="M91.5949 107.766L86.5564 107.734L86.4456 122.887L46.1391 122.631L46.2132 112.529L41.1747 112.497L41.0638 127.65L91.4468 127.97L91.5949 107.766L96.633 107.798L96.7444 92.6449L91.7059 92.6126L91.5949 107.766Z" fill="#333333"/>
</svg>
