<svg width="151" height="26" viewBox="0 0 151 26" fill="none" xmlns="http://www.w3.org/2000/svg">
<path d="M0.490562 10.5479V3.28737H1.94267V1.83527H3.39477V0.383163H7.75109V1.83527H9.20319V3.28737H10.6553V10.5479H7.75109V7.64369H3.39477V10.5479H0.490562ZM3.39477 6.19158H7.75109V3.28737H6.29898V1.83527H4.84688V3.28737H3.39477V6.19158ZM12.1074 10.5479V3.28737H13.5595V1.83527H15.0116V0.383163H19.3679V1.83527H20.82V3.28737H22.2721V10.5479H19.3679V7.64369H15.0116V10.5479H12.1074ZM15.0116 6.19158H19.3679V3.28737H17.9158V1.83527H16.4637V3.28737H15.0116V6.19158ZM23.7242 10.5479V3.28737H25.1763V1.83527H26.6284V0.383163H30.9848V1.83527H32.4369V3.28737H33.889V10.5479H30.9848V7.64369H26.6284V10.5479H23.7242ZM26.6284 6.19158H30.9848V3.28737H29.5327V1.83527H28.0805V3.28737H26.6284V6.19158ZM35.3411 10.5479V3.28737H36.7932V1.83527H38.2453V0.383163H42.6016V1.83527H44.0537V3.28737H45.5058V10.5479H42.6016V7.64369H38.2453V10.5479H35.3411ZM38.2453 6.19158H42.6016V3.28737H41.1495V1.83527H39.6974V3.28737H38.2453V6.19158ZM46.9579 10.5479V3.28737H48.41V1.83527H49.8621V0.383163H54.2184V1.83527H55.6705V3.28737H57.1226V10.5479H54.2184V7.64369H49.8621V10.5479H46.9579ZM49.8621 6.19158H54.2184V3.28737H52.7663V1.83527H51.3142V3.28737H49.8621V6.19158ZM58.5747 10.5479V3.28737H60.0268V1.83527H61.479V0.383163H65.8353V1.83527H67.2874V3.28737H68.7395V10.5479H65.8353V7.64369H61.479V10.5479H58.5747ZM61.479 6.19158H65.8353V3.28737H64.3832V1.83527H62.9311V3.28737H61.479V6.19158ZM70.1916 10.5479V3.28737H71.6437V1.83527H73.0958V0.383163H77.4521V1.83527H78.9042V3.28737H80.3563V10.5479H77.4521V7.64369H73.0958V10.5479H70.1916ZM73.0958 6.19158H77.4521V3.28737H76V1.83527H74.5479V3.28737H73.0958V6.19158ZM81.8084 10.5479V3.28737H83.2605V1.83527H84.7126V0.383163H89.0689V1.83527H90.521V3.28737H91.9732V10.5479H89.0689V7.64369H84.7126V10.5479H81.8084ZM84.7126 6.19158H89.0689V3.28737H87.6168V1.83527H86.1647V3.28737H84.7126V6.19158ZM93.4253 10.5479V3.28737H94.8774V1.83527H96.3295V0.383163H100.686V1.83527H102.138V3.28737H103.59V10.5479H100.686V7.64369H96.3295V10.5479H93.4253ZM96.3295 6.19158H100.686V3.28737H99.2337V1.83527H97.7816V3.28737H96.3295V6.19158ZM105.042 10.5479V3.28737H106.494V1.83527H107.946V0.383163H112.303V1.83527H113.755V3.28737H115.207V10.5479H112.303V7.64369H107.946V10.5479H105.042ZM107.946 6.19158H112.303V3.28737H110.851V1.83527H109.398V3.28737H107.946V6.19158ZM116.659 10.5479V3.28737H118.111V1.83527H119.563V0.383163H123.919V1.83527H125.372V3.28737H126.824V10.5479H123.919V7.64369H119.563V10.5479H116.659ZM119.563 6.19158H123.919V3.28737H122.467V1.83527H121.015V3.28737H119.563V6.19158ZM128.276 10.5479V3.28737H129.728V1.83527H131.18V0.383163H135.536V1.83527H136.988V3.28737H138.44V10.5479H135.536V7.64369H131.18V10.5479H128.276ZM131.18 6.19158H135.536V3.28737H134.084V1.83527H132.632V3.28737H131.18V6.19158ZM139.893 10.5479V3.28737H141.345V1.83527H142.797V0.383163H147.153V1.83527H148.605V3.28737H150.057V10.5479H147.153V7.64369H142.797V10.5479H139.893ZM142.797 6.19158H147.153V3.28737H145.701V1.83527H144.249V3.28737H142.797V6.19158ZM0.490562 25.5479V18.2874H1.94267V16.8353H3.39477V15.3832H7.75109V16.8353H9.20319V18.2874H10.6553V25.5479H7.75109V22.6437H3.39477V25.5479H0.490562ZM3.39477 21.1916H7.75109V18.2874H6.29898V16.8353H4.84688V18.2874H3.39477V21.1916ZM12.1074 25.5479V18.2874H13.5595V16.8353H15.0116V15.3832H19.3679V16.8353H20.82V18.2874H22.2721V25.5479H19.3679V22.6437H15.0116V25.5479H12.1074ZM15.0116 21.1916H19.3679V18.2874H17.9158V16.8353H16.4637V18.2874H15.0116V21.1916ZM23.7242 25.5479V18.2874H25.1763V16.8353H26.6284V15.3832H30.9848V16.8353H32.4369V18.2874H33.889V25.5479H30.9848V22.6437H26.6284V25.5479H23.7242ZM26.6284 21.1916H30.9848V18.2874H29.5327V16.8353H28.0805V18.2874H26.6284V21.1916ZM35.3411 25.5479V18.2874H36.7932V16.8353H38.2453V15.3832H42.6016V16.8353H44.0537V18.2874H45.5058V25.5479H42.6016V22.6437H38.2453V25.5479H35.3411ZM38.2453 21.1916H42.6016V18.2874H41.1495V16.8353H39.6974V18.2874H38.2453V21.1916ZM46.9579 25.5479V18.2874H48.41V16.8353H49.8621V15.3832H54.2184V16.8353H55.6705V18.2874H57.1226V25.5479H54.2184V22.6437H49.8621V25.5479H46.9579ZM49.8621 21.1916H54.2184V18.2874H52.7663V16.8353H51.3142V18.2874H49.8621V21.1916ZM58.5747 25.5479V18.2874H60.0268V16.8353H61.479V15.3832H65.8353V16.8353H67.2874V18.2874H68.7395V25.5479H65.8353V22.6437H61.479V25.5479H58.5747ZM61.479 21.1916H65.8353V18.2874H64.3832V16.8353H62.9311V18.2874H61.479V21.1916ZM70.1916 25.5479V18.2874H71.6437V16.8353H73.0958V15.3832H77.4521V16.8353H78.9042V18.2874H80.3563V25.5479H77.4521V22.6437H73.0958V25.5479H70.1916ZM73.0958 21.1916H77.4521V18.2874H76V16.8353H74.5479V18.2874H73.0958V21.1916ZM81.8084 25.5479V18.2874H83.2605V16.8353H84.7126V15.3832H89.0689V16.8353H90.521V18.2874H91.9732V25.5479H89.0689V22.6437H84.7126V25.5479H81.8084ZM84.7126 21.1916H89.0689V18.2874H87.6168V16.8353H86.1647V18.2874H84.7126V21.1916ZM93.4253 25.5479V18.2874H94.8774V16.8353H96.3295V15.3832H100.686V16.8353H102.138V18.2874H103.59V25.5479H100.686V22.6437H96.3295V25.5479H93.4253ZM96.3295 21.1916H100.686V18.2874H99.2337V16.8353H97.7816V18.2874H96.3295V21.1916ZM107.946 22.6437V15.3832H112.303V19.7395H110.851V22.6437H107.946ZM107.946 25.5479V24.0958H110.851V25.5479H107.946ZM119.563 22.6437V15.3832H123.919V19.7395H122.467V22.6437H119.563ZM119.563 25.5479V24.0958H122.467V25.5479H119.563ZM131.18 22.6437V15.3832H135.536V19.7395H134.084V22.6437H131.18ZM131.18 25.5479V24.0958H134.084V25.5479H131.18ZM142.797 22.6437V15.3832H147.153V19.7395H145.701V22.6437H142.797ZM142.797 25.5479V24.0958H145.701V25.5479H142.797Z" fill="black"/>
</svg>
