<svg width="201" height="43" viewBox="0 0 201 43" fill="none" xmlns="http://www.w3.org/2000/svg">
<path d="M0 10.5V0H9V3H7.5V1.5H3V10.5H0ZM12 10.5V9H10.5V1.5H12V0H19.5V1.5H21V9H19.5V10.5H12ZM13.5 9H18V1.5H13.5V9ZM22.5 10.5V0H31.5V1.5H33V4.5H31.5V6H33V9H31.5V10.5H22.5ZM25.5 4.5H30V1.5H25.5V4.5ZM25.5 9H30V6H25.5V9ZM36 10.5V9H34.5V1.5H36V0H43.5V1.5H45V9H43.5V10.5H36ZM37.5 9H42V1.5H37.5V9ZM46.5 10.5V0H55.5V1.5H57V6H55.5V7.5H49.5V10.5H46.5ZM49.5 6H54V1.5H49.5V6ZM58.5 10.5V0H61.5V6H63V4.5H64.5V3H66V0H69V10.5H66V6H64.5V7.5H63V9H61.5V10.5H58.5ZM70.5 10.5V7.5H72V6H73.5V0H81V10.5H78V1.5H75V9H73.5V10.5H70.5ZM82.5 10.5V3H84V1.5H85.5V0H90V1.5H91.5V3H93V10.5H90V7.5H85.5V10.5H82.5ZM85.5 6H90V3H88.5V1.5H87V3H85.5V6ZM106.5 10.5V0H109.5V1.5H111V3H112.5V1.5H114V0H117V10.5H114V4.5H112.5V7.5H111V4.5H109.5V10.5H106.5ZM118.5 10.5V0H121.5V4.5H126V0H129V10.5H126V6H121.5V10.5H118.5ZM130.5 10.5V0H141V1.5H133.5V4.5H139.5V6H133.5V9H141V10.5H130.5ZM154.5 10.5V0H157.5V1.5H159V3H160.5V1.5H162V0H165V10.5H162V4.5H160.5V7.5H159V4.5H157.5V10.5H154.5ZM166.5 10.5V3H168V1.5H169.5V0H174V1.5H175.5V3H177V10.5H174V7.5H169.5V10.5H166.5ZM169.5 6H174V3H172.5V1.5H171V3H169.5V6ZM178.5 10.5V0H181.5V1.5H183V3H184.5V1.5H186V0H189V10.5H186V4.5H184.5V7.5H183V4.5H181.5V10.5H178.5ZM190.5 10.5V3H192V1.5H193.5V0H198V1.5H199.5V3H201V10.5H198V7.5H193.5V10.5H190.5ZM193.5 6H198V3H196.5V1.5H195V3H193.5V6ZM46.5 28V25H48V22H49.5V16H57V25H58.5V28H55.5V26.5H49.5V28H46.5ZM51 25H54V17.5H51V25ZM58.5 26.5V19H60V17.5H61.5V16H66V17.5H67.5V19H69V26.5H66V23.5H61.5V26.5H58.5ZM61.5 22H66V19H64.5V17.5H63V19H61.5V22ZM70.5 26.5V23.5H72V22H73.5V16H81V26.5H78V17.5H75V25H73.5V26.5H70.5ZM82.5 26.5V16H93V17.5H85.5V20.5H91.5V22H85.5V25H93V26.5H82.5ZM99 19H100.5V20.5H102V22H103.5V25H105V26.5H102V25H100.5V22H97.5V26.5H94.5V16H97.5V20.5H99V19ZM105 16V17.5H103.5V19H100.5V17.5H102V16H105ZM108 26.5V25H106.5V17.5H108V16H115.5V17.5H117V25H115.5V26.5H108ZM109.5 25H114V17.5H109.5V25ZM130.5 26.5V16H133.5V20.5H138V16H141V26.5H138V22H133.5V26.5H130.5ZM142.5 26.5V16H153V17.5H145.5V20.5H151.5V22H145.5V25H153V26.5H142.5ZM42 42.5V41H40.5V39.5H43.5V41H48V38H42V36.5H40.5V32H43.5V36.5H48V32H51V41H49.5V42.5H42ZM52.5 42.5V39.5H54V38H55.5V32H63V42.5H60V33.5H57V41H55.5V42.5H52.5ZM64.5 42.5V32H75V33.5H67.5V36.5H73.5V38H67.5V41H75V42.5H64.5ZM81 42.5V33.5H78V32H87V33.5H84V42.5H81ZM88.5 42.5V35H90V33.5H91.5V32H96V33.5H97.5V35H99V42.5H96V39.5H91.5V42.5H88.5ZM91.5 38H96V35H94.5V33.5H93V35H91.5V38ZM105 42.5V33.5H102V32H111V33.5H108V42.5H105ZM112.5 42.5V32H115.5V35H121.5V36.5H123V41H121.5V42.5H112.5ZM115.5 41H120V36.5H115.5V41ZM127.5 42.5V39.5H130.5V42.5H127.5ZM139.5 42.5V39.5H142.5V42.5H139.5ZM151.5 42.5V39.5H154.5V42.5H151.5Z" fill="black"/>
</svg>
