<svg width="124" height="11" viewBox="0 0 124 11" fill="none" xmlns="http://www.w3.org/2000/svg">
<path d="M1.5595 10.5479V9.09579H0.107399V7.64369H3.01161V9.09579H7.36792V6.19158H3.01161V4.73948H7.36792V1.83527H3.01161V3.28737H0.107399V1.83527H1.5595V0.383163H8.82003V1.83527H10.2721V4.73948H8.82003V6.19158H10.2721V9.09579H8.82003V10.5479H1.5595ZM11.7242 10.5479V3.28737H13.1763V1.83527H14.6284V0.383163H18.9848V1.83527H20.4369V3.28737H21.889V10.5479H18.9848V7.64369H14.6284V10.5479H11.7242ZM14.6284 6.19158H18.9848V3.28737H17.5327V1.83527H16.0805V3.28737H14.6284V6.19158ZM34.9579 10.5479V0.383163H45.1226V10.5479H42.2184V1.83527H37.8621V10.5479H34.9579ZM46.5747 10.5479V7.64369H48.0268V6.19158H49.479V0.383163H56.7395V10.5479H53.8353V1.83527H50.9311V9.09579H49.479V10.5479H46.5747ZM59.6437 10.5479V9.09579H58.1916V7.64369H61.0958V9.09579H65.4521V6.19158H59.6437V4.73948H58.1916V0.383163H61.0958V4.73948H65.4521V0.383163H68.3563V9.09579H66.9042V10.5479H59.6437ZM74.1647 10.5479V1.83527H71.2605V0.383163H79.9732V1.83527H77.0689V10.5479H74.1647ZM82.8774 10.5479V9.09579H81.4253V1.83527H82.8774V0.383163H90.1379V1.83527H91.59V9.09579H90.1379V10.5479H82.8774ZM84.3295 9.09579H88.6858V1.83527H84.3295V9.09579ZM93.0421 10.5479V0.383163H95.9463V4.73948H100.303V0.383163H103.207V10.5479H100.303V6.19158H95.9463V10.5479H93.0421ZM107.563 7.64369V0.383163H111.919V4.73948H110.467V7.64369H107.563ZM107.563 10.5479V9.09579H110.467V10.5479H107.563ZM119.18 7.64369V0.383163H123.536V4.73948H122.084V7.64369H119.18ZM119.18 10.5479V9.09579H122.084V10.5479H119.18Z" fill="black"/>
</svg>
