<svg width="191" height="28" viewBox="0 0 191 28" fill="none" xmlns="http://www.w3.org/2000/svg">
<path d="M29 3H30.5V4.5H32V6H33.5V9H35V10.5H32V9H30.5V6H27.5V10.5H24.5V0H27.5V4.5H29V3ZM35 0V1.5H33.5V3H30.5V1.5H32V0H35ZM38 10.5V9H36.5V7.5H39.5V9H44V6H38V4.5H36.5V0H39.5V4.5H44V0H47V9H45.5V10.5H38ZM48.5 12V9H50V6H51.5V0H59V9H60.5V12H57.5V10.5H51.5V12H48.5ZM53 9H56V1.5H53V9ZM60.5 10.5V3H62V1.5H63.5V0H68V1.5H69.5V3H71V10.5H68V7.5H63.5V10.5H60.5ZM63.5 6H68V3H66.5V1.5H65V3H63.5V6ZM84.5 10.5V9H86V7.5H87.5V6H84.5V1.5H86V0H95V10.5H92V7.5H89V10.5H84.5ZM89 6H92V1.5H87.5V4.5H89V6ZM108.5 10.5V7.5H110V6H111.5V0H119V10.5H116V1.5H113V9H111.5V10.5H108.5ZM120.5 10.5V0H131V1.5H123.5V4.5H129.5V6H123.5V9H131V10.5H120.5ZM140 10.5V6H134V4.5H132.5V0H135.5V4.5H140V0H143V10.5H140ZM146 10.5V9H144.5V7.5H147.5V9H152V6H146V4.5H144.5V0H147.5V4.5H152V0H155V9H153.5V10.5H146ZM159.5 7.5V6H162.5V4.5H164V3H159.5V4.5H156.5V1.5H158V0H165.5V1.5H167V4.5H165.5V6H164V7.5H159.5ZM159.5 10.5V9H164V10.5H159.5ZM2 26.5V25H0.5V23.5H3.5V25H8V22H3.5V20.5H8V17.5H3.5V19H0.5V17.5H2V16H9.5V17.5H11V20.5H9.5V22H11V25H9.5V26.5H2ZM12.5 26.5V19H14V17.5H15.5V16H20V17.5H21.5V19H23V26.5H20V23.5H15.5V26.5H12.5ZM15.5 22H20V19H18.5V17.5H17V19H15.5V22ZM32 26.5V22H26V20.5H24.5V16H27.5V20.5H32V16H35V26.5H32ZM36.5 26.5V16H47V17.5H39.5V20.5H45.5V22H39.5V25H47V26.5H36.5ZM48.5 26.5V16H51.5V17.5H53V19H54.5V17.5H56V16H59V26.5H56V20.5H54.5V23.5H53V20.5H51.5V26.5H48.5ZM63.5 23.5V22H66.5V20.5H68V19H63.5V20.5H60.5V17.5H62V16H69.5V17.5H71V20.5H69.5V22H68V23.5H63.5ZM63.5 26.5V25H68V26.5H63.5ZM84.5 28V25H86V22H87.5V16H95V25H96.5V28H93.5V26.5H87.5V28H84.5ZM89 25H92V17.5H89V25ZM96.5 26.5V23.5H98V22H99.5V16H107V26.5H104V17.5H101V25H99.5V26.5H96.5ZM108.5 26.5V25H110V23.5H111.5V22H108.5V17.5H110V16H119V26.5H116V23.5H113V26.5H108.5ZM113 22H116V17.5H111.5V20.5H113V22ZM140 26.5V22H134V20.5H132.5V16H135.5V20.5H140V16H143V26.5H140ZM144.5 26.5V16H155V17.5H147.5V20.5H153.5V22H147.5V25H155V26.5H144.5ZM158 26.5V16H167V19H165.5V17.5H161V26.5H158ZM170 26.5V25H168.5V17.5H170V16H177.5V17.5H179V25H177.5V26.5H170ZM171.5 25H176V17.5H171.5V25ZM183.5 23.5V22H186.5V20.5H188V19H183.5V20.5H180.5V17.5H182V16H189.5V17.5H191V20.5H189.5V22H188V23.5H183.5ZM183.5 26.5V25H188V26.5H183.5Z" fill="black"/>
</svg>
