<svg width="275" height="51" viewBox="0 0 275 51" fill="none" xmlns="http://www.w3.org/2000/svg">
<path d="M54.5 10.5V0H57.5V4.5H62V0H65V10.5H62V6H57.5V10.5H54.5ZM66.5 10.5V3H68V1.5H69.5V0H74V1.5H75.5V3H77V10.5H74V7.5H69.5V10.5H66.5ZM69.5 6H74V3H72.5V1.5H71V3H69.5V6ZM81.5 0V4.5H80V3H78.5V0H81.5ZM84.5 4.5H86V6H84.5V10.5H83V6H81.5V4.5H83V0H84.5V4.5ZM89 0V3H87.5V4.5H86V0H89ZM80 6H81.5V10.5H78.5V7.5H80V6ZM86 10.5V6H87.5V7.5H89V10.5H86ZM90.5 10.5V0H93.5V6H95V4.5H96.5V3H98V0H101V10.5H98V6H96.5V7.5H95V9H93.5V10.5H90.5ZM102.5 10.5V0H105.5V1.5H107V3H108.5V1.5H110V0H113V10.5H110V4.5H108.5V7.5H107V4.5H105.5V10.5H102.5ZM114.5 10.5V3H116V1.5H117.5V0H122V1.5H123.5V3H125V10.5H122V7.5H117.5V10.5H114.5ZM117.5 6H122V3H120.5V1.5H119V3H117.5V6ZM128 1.5V0H135.5V1.5H128ZM126.5 10.5V3H129.5V7.5H131V6H132.5V4.5H134V3H137V10.5H134V7.5H132.5V9H131V10.5H126.5ZM150.5 10.5V0H153.5V4.5H158V0H161V10.5H158V6H153.5V10.5H150.5ZM162.5 10.5V3H164V1.5H165.5V0H170V1.5H171.5V3H173V10.5H170V7.5H165.5V10.5H162.5ZM165.5 6H170V3H168.5V1.5H167V3H165.5V6ZM186.5 10.5V0H189.5V4.5H194V0H197V10.5H194V6H189.5V10.5H186.5ZM198.5 10.5V7.5H200V6H201.5V0H209V10.5H206V1.5H203V9H201.5V10.5H198.5ZM212 10.5V9H210.5V1.5H212V0H219.5V1.5H221V9H219.5V10.5H212ZM213.5 9H218V1.5H213.5V9ZM0.5 30.5V20H3.5V26H5V24.5H6.5V23H8V20H11V30.5H8V26H6.5V27.5H5V29H3.5V30.5H0.5ZM26 30.5V29H24.5V21.5H26V20H33.5V21.5H35V29H33.5V30.5H26ZM27.5 29H32V21.5H27.5V29ZM41 30.5V21.5H38V20H47V21.5H44V30.5H41ZM48.5 30.5V20H57.5V21.5H59V26H57.5V27.5H51.5V30.5H48.5ZM51.5 26H56V21.5H51.5V26ZM60.5 30.5V23H62V21.5H63.5V20H68V21.5H69.5V23H71V30.5H68V27.5H63.5V30.5H60.5ZM63.5 26H68V23H66.5V21.5H65V23H63.5V26ZM72.5 30.5V20H81.5V21.5H83V24.5H81.5V26H83V29H81.5V30.5H72.5ZM75.5 24.5H80V21.5H75.5V24.5ZM75.5 29H80V26H75.5V29ZM84.5 30.5V27.5H86V26H87.5V20H95V30.5H92V21.5H89V29H87.5V30.5H84.5ZM96.5 30.5V29H98V27.5H99.5V26H96.5V21.5H98V20H107V30.5H104V27.5H101V30.5H96.5ZM101 26H104V21.5H99.5V24.5H101V26ZM110 21.5V20H117.5V21.5H110ZM108.5 30.5V23H111.5V27.5H113V26H114.5V24.5H116V23H119V30.5H116V27.5H114.5V29H113V30.5H108.5ZM132.5 30.5V20H135.5V26H137V24.5H138.5V23H140V20H143V30.5H140V26H138.5V27.5H137V29H135.5V30.5H132.5ZM144.5 30.5V27.5H146V26H147.5V24.5H146V23H144.5V20H147.5V23H149V24.5H150.5V23H152V20H155V23H153.5V24.5H152V26H153.5V27.5H155V30.5H152V27.5H150.5V26H149V27.5H147.5V30.5H144.5ZM168.5 30.5V20H177.5V21.5H179V24.5H177.5V26H179V29H177.5V30.5H168.5ZM171.5 24.5H176V21.5H171.5V24.5ZM171.5 29H176V26H171.5V29ZM192.5 32V29H194V26H195.5V20H203V29H204.5V32H201.5V30.5H195.5V32H192.5ZM197 29H200V21.5H197V29ZM204.5 30.5V23H206V21.5H207.5V20H212V21.5H213.5V23H215V30.5H212V27.5H207.5V30.5H204.5ZM207.5 26H212V23H210.5V21.5H209V23H207.5V26ZM216.5 30.5V27.5H218V26H219.5V20H227V30.5H224V21.5H221V29H219.5V30.5H216.5ZM228.5 30.5V20H239V21.5H231.5V24.5H237.5V26H231.5V29H239V30.5H228.5ZM245 23H246.5V24.5H248V26H249.5V29H251V30.5H248V29H246.5V26H243.5V30.5H240.5V20H243.5V24.5H245V23ZM251 20V21.5H249.5V23H246.5V21.5H248V20H251ZM252.5 30.5V20H255.5V26H257V24.5H258.5V23H260V20H263V30.5H260V26H258.5V27.5H257V29H255.5V30.5H252.5ZM266 21.5V20H273.5V21.5H266ZM264.5 30.5V23H267.5V27.5H269V26H270.5V24.5H272V23H275V30.5H272V27.5H270.5V29H269V30.5H264.5ZM101 43H102.5V44.5H104V46H105.5V49H107V50.5H104V49H102.5V46H99.5V50.5H96.5V40H99.5V44.5H101V43ZM107 40V41.5H105.5V43H102.5V41.5H104V40H107ZM110 50.5V49H108.5V41.5H110V40H117.5V41.5H119V49H117.5V50.5H110ZM111.5 49H116V41.5H111.5V49ZM123.5 50.5V49H122V47.5H120.5V43H122V41.5H123.5V40H129.5V41.5H131V43H128V41.5H125V43H123.5V47.5H125V49H128V47.5H131V49H129.5V50.5H123.5ZM132.5 50.5V40H135.5V41.5H137V43H138.5V41.5H140V40H143V50.5H140V44.5H138.5V47.5H137V44.5H135.5V50.5H132.5ZM146 50.5V49H144.5V41.5H146V40H153.5V41.5H155V49H153.5V50.5H146ZM147.5 49H152V41.5H147.5V49ZM159.5 50.5V49H158V47.5H156.5V43H158V41.5H159.5V40H165.5V41.5H167V43H164V41.5H161V43H159.5V47.5H161V49H164V47.5H167V49H165.5V50.5H159.5ZM171.5 47.5V40H176V44.5H174.5V47.5H171.5ZM171.5 50.5V49H174.5V50.5H171.5Z" fill="white"/>
</svg>
