<svg width="200" height="25" viewBox="0 0 200 25" fill="none" xmlns="http://www.w3.org/2000/svg">
<path d="M0.5 8.75V0H3V3.75H6.75V0H9.25V8.75H6.75V5H3V8.75H0.5ZM10.5 8.75V2.5H11.75V1.25H13V0H16.75V1.25H18V2.5H19.25V8.75H16.75V6.25H13V8.75H10.5ZM13 5H16.75V2.5H15.5V1.25H14.25V2.5H13V5ZM30.5 8.75V0H39.25V8.75H36.75V1.25H33V8.75H30.5ZM41.75 8.75V7.5H40.5V1.25H41.75V0H48V1.25H49.25V7.5H48V8.75H41.75ZM43 7.5H46.75V1.25H43V7.5ZM53 8.75V7.5H51.75V6.25H50.5V2.5H51.75V1.25H53V0H58V1.25H59.25V2.5H56.75V1.25H54.25V2.5H53V6.25H54.25V7.5H56.75V6.25H59.25V7.5H58V8.75H53ZM60.5 8.75V6.25H61.75V5H63V0H69.25V8.75H66.75V1.25H64.25V7.5H63V8.75H60.5ZM70.5 8.75V0H79.25V1.25H73V3.75H78V5H73V7.5H79.25V8.75H70.5ZM80.5 10V7.5H81.75V5H83V0H89.25V7.5H90.5V10H88V8.75H83V10H80.5ZM84.25 7.5H86.75V1.25H84.25V7.5ZM90.5 8.75V0H93V3.75H96.75V0H99.25V8.75H96.75V5H93V8.75H90.5ZM100.5 8.75V0H103V5H104.25V3.75H105.5V2.5H106.75V0H109.25V8.75H106.75V5H105.5V6.25H104.25V7.5H103V8.75H100.5ZM111.75 1.25V0H118V1.25H111.75ZM110.5 8.75V2.5H113V6.25H114.25V5H115.5V3.75H116.75V2.5H119.25V8.75H116.75V6.25H115.5V7.5H114.25V8.75H110.5ZM130.5 8.75V2.5H131.75V1.25H133V0H136.75V1.25H138V2.5H139.25V8.75H136.75V6.25H133V8.75H130.5ZM133 5H136.75V2.5H135.5V1.25H134.25V2.5H133V5ZM140.5 8.75V0H148V1.25H149.25V3.75H148V5H149.25V7.5H148V8.75H140.5ZM143 3.75H146.75V1.25H143V3.75ZM143 7.5H146.75V5H143V7.5ZM154.25 8.75V1.25H151.75V0H159.25V1.25H156.75V8.75H154.25ZM161.75 8.75V7.5H160.5V1.25H161.75V0H168V1.25H169.25V7.5H168V8.75H161.75ZM163 7.5H166.75V1.25H163V7.5ZM170.5 8.75V0H178V1.25H173V3.75H178V5H179.25V7.5H178V8.75H170.5ZM173 7.5H176.75V5H173V7.5ZM181.75 8.75V7.5H180.5V6.25H183V7.5H186.75V5H181.75V3.75H180.5V0H183V3.75H186.75V0H189.25V7.5H188V8.75H181.75ZM193 8.75V7.5H191.75V6.25H190.5V2.5H191.75V1.25H193V0H198V1.25H199.25V2.5H196.75V1.25H194.25V2.5H193V6.25H194.25V7.5H196.75V6.25H199.25V7.5H198V8.75H193ZM35.5 24.75V16H38V19.75H41.75V16H44.25V24.75H41.75V21H38V24.75H35.5ZM45.5 24.75V16H54.25V17.25H48V19.75H53V21H48V23.5H54.25V24.75H45.5ZM66.75 24.75V23.5H65.5V22.25H68V23.5H71.75V21H66.75V19.75H65.5V16H68V19.75H71.75V16H74.25V23.5H73V24.75H66.75ZM78 24.75V23.5H76.75V22.25H75.5V18.5H76.75V17.25H78V16H83V17.25H84.25V18.5H81.75V17.25H79.25V18.5H78V22.25H79.25V23.5H81.75V22.25H84.25V23.5H83V24.75H78ZM85.5 24.75V16H94.25V24.75H91.75V17.25H88V24.75H85.5ZM95.5 24.75V16H104.25V17.25H98V19.75H103V21H98V23.5H104.25V24.75H95.5ZM105.5 24.75V16H113V17.25H114.25V19.75H113V21H114.25V23.5H113V24.75H105.5ZM108 19.75H111.75V17.25H108V19.75ZM108 23.5H111.75V21H108V23.5ZM115.5 24.75V18.5H116.75V17.25H118V16H121.75V17.25H123V18.5H124.25V24.75H121.75V22.25H118V24.75H115.5ZM118 21H121.75V18.5H120.5V17.25H119.25V18.5H118V21ZM125.5 24.75V16H126.75V19.75H128V17.25H129.25V16H133V17.25H134.25V23.5H133V24.75H129.25V23.5H128V21H126.75V24.75H125.5ZM130.5 23.5H131.75V17.25H130.5V23.5ZM138 24.75V22.25H140.5V24.75H138ZM148 24.75V22.25H150.5V24.75H148ZM158 24.75V22.25H160.5V24.75H158Z" fill="black"/>
</svg>
