<svg width="82" height="16" viewBox="0 0 82 16" fill="none" xmlns="http://www.w3.org/2000/svg">
<path d="M11.642 0.454545V15H9.88068V2.01705H2.55114V15H0.789773V0.454545H11.642ZM13.945 15V13.3807H14.3711C14.9772 13.3807 15.4483 13.1866 15.7844 12.7983C16.1206 12.41 16.3621 11.7827 16.5089 10.9162C16.6604 10.0497 16.7622 8.90151 16.8143 7.47159L17.07 0.454545H25.9336V15H24.1722V2.01705H18.7461L18.5188 7.8125C18.462 9.33712 18.3223 10.6345 18.0998 11.7045C17.8772 12.7746 17.4866 13.5914 16.9279 14.1548C16.3692 14.7183 15.5548 15 14.4847 15H13.945ZM41.7255 7.72727C41.7255 9.26136 41.4485 10.5871 40.8945 11.7045C40.3406 12.822 39.5806 13.6837 38.6147 14.2898C37.6488 14.8958 36.5456 15.1989 35.305 15.1989C34.0645 15.1989 32.9613 14.8958 31.9954 14.2898C31.0295 13.6837 30.2695 12.822 29.7156 11.7045C29.1616 10.5871 28.8846 9.26136 28.8846 7.72727C28.8846 6.19318 29.1616 4.86742 29.7156 3.75C30.2695 2.63258 31.0295 1.77083 31.9954 1.16477C32.9613 0.558712 34.0645 0.255681 35.305 0.255681C36.5456 0.255681 37.6488 0.558712 38.6147 1.16477C39.5806 1.77083 40.3406 2.63258 40.8945 3.75C41.4485 4.86742 41.7255 6.19318 41.7255 7.72727ZM40.021 7.72727C40.021 6.4678 39.8103 5.40483 39.3888 4.53835C38.9722 3.67188 38.4064 3.0161 37.6914 2.57102C36.9812 2.12595 36.1857 1.90341 35.305 1.90341C34.4244 1.90341 33.6265 2.12595 32.9116 2.57102C32.2013 3.0161 31.6355 3.67188 31.2141 4.53835C30.7975 5.40483 30.5891 6.4678 30.5891 7.72727C30.5891 8.98674 30.7975 10.0497 31.2141 10.9162C31.6355 11.7827 32.2013 12.4384 32.9116 12.8835C33.6265 13.3286 34.4244 13.5511 35.305 13.5511C36.1857 13.5511 36.9812 13.3286 37.6914 12.8835C38.4064 12.4384 38.9722 11.7827 39.3888 10.9162C39.8103 10.0497 40.021 8.98674 40.021 7.72727ZM45.305 0.454545L49.055 6.50568H49.1687L52.9187 0.454545H54.9925L50.4187 7.72727L54.9925 15H52.9187L49.1687 9.0625H49.055L45.305 15H43.2312L47.9187 7.72727L43.2312 0.454545H45.305ZM57.2848 0.454545H59.0178V11.9034H59.1598L67.1143 0.454545H68.8189V15H67.0575V3.57955H66.9155L58.9893 15H57.2848V0.454545ZM72.3434 15V0.454545H81.1218V2.01705H74.1048V6.93182H80.6673V8.49432H74.1048V13.4375H81.2354V15H72.3434Z" fill="#9D9BFF"/>
</svg>
