<svg width="151" height="12" viewBox="0 0 151 12" fill="none" xmlns="http://www.w3.org/2000/svg">
<path d="M0.5 10.5V7.5H2V6H3.5V4.5H2V3H0.5V0H3.5V3H5V4.5H6.5V3H8V0H11V3H9.5V4.5H8V6H9.5V7.5H11V10.5H8V7.5H6.5V6H5V7.5H3.5V10.5H0.5ZM14 10.5V9H12.5V1.5H14V0H21.5V1.5H23V9H21.5V10.5H14ZM15.5 9H20V1.5H15.5V9ZM32 10.5V6H26V4.5H24.5V0H27.5V4.5H32V0H35V10.5H32ZM38 10.5V9H36.5V7.5H39.5V9H44V6H38V4.5H36.5V0H39.5V4.5H44V0H47V9H45.5V10.5H38ZM60.5 12V9H62V6H63.5V0H71V9H72.5V12H69.5V10.5H63.5V12H60.5ZM65 9H68V1.5H65V9ZM74 10.5V9H72.5V1.5H74V0H81.5V1.5H83V9H81.5V10.5H74ZM75.5 9H80V1.5H75.5V9ZM84.5 10.5V0H87.5V1.5H89V3H90.5V1.5H92V0H95V10.5H92V4.5H90.5V7.5H89V4.5H87.5V10.5H84.5ZM98 10.5V9H96.5V1.5H98V0H105.5V1.5H107V9H105.5V10.5H98ZM99.5 9H104V1.5H99.5V9ZM110 1.5V0H117.5V1.5H110ZM108.5 10.5V3H111.5V7.5H113V6H114.5V4.5H116V3H119V10.5H116V7.5H114.5V9H113V10.5H108.5ZM123.5 10.5V7.5H126.5V10.5H123.5ZM135.5 10.5V7.5H138.5V10.5H135.5ZM147.5 10.5V7.5H150.5V10.5H147.5Z" fill="black"/>
</svg>
