<svg width="190" height="26" viewBox="0 0 190 26" fill="none" xmlns="http://www.w3.org/2000/svg">
<path d="M1.75 8.75V7.5H0.5V6.25H3V7.5H6.75V5H1.75V3.75H0.5V0H3V3.75H6.75V0H9.25V7.5H8V8.75H1.75ZM20.5 8.75V0H28V1.25H29.25V3.75H28V5H29.25V7.5H28V8.75H20.5ZM23 3.75H26.75V1.25H23V3.75ZM23 7.5H26.75V5H23V7.5ZM30.5 8.75V2.5H31.75V1.25H33V0H36.75V1.25H38V2.5H39.25V8.75H36.75V6.25H33V8.75H30.5ZM33 5H36.75V2.5H35.5V1.25H34.25V2.5H33V5ZM43 8.75V7.5H41.75V6.25H40.5V2.5H41.75V1.25H43V0H48V1.25H49.25V2.5H46.75V1.25H44.25V2.5H43V6.25H44.25V7.5H46.75V6.25H49.25V7.5H48V8.75H43ZM60.5 8.75V0H69.25V1.25H63V3.75H68V5H63V7.5H69.25V8.75H60.5ZM73 8.75V7.5H71.75V6.25H70.5V2.5H71.75V1.25H73V0H78V1.25H79.25V2.5H76.75V1.25H74.25V2.5H73V6.25H74.25V7.5H76.75V6.25H79.25V7.5H78V8.75H73ZM84.25 8.75V1.25H81.75V0H89.25V1.25H86.75V8.75H84.25ZM90.5 8.75V0H93V2.5H98V3.75H99.25V7.5H98V8.75H90.5ZM93 7.5H96.75V3.75H93V7.5ZM110.5 8.75V0H113V1.25H114.25V2.5H115.5V1.25H116.75V0H119.25V8.75H116.75V3.75H115.5V6.25H114.25V3.75H113V8.75H110.5ZM120.5 8.75V2.5H121.75V1.25H123V0H126.75V1.25H128V2.5H129.25V8.75H126.75V6.25H123V8.75H120.5ZM123 5H126.75V2.5H125.5V1.25H124.25V2.5H123V5ZM134.25 2.5H135.5V3.75H136.75V5H138V7.5H139.25V8.75H136.75V7.5H135.5V5H133V8.75H130.5V0H133V3.75H134.25V2.5ZM139.25 0V1.25H138V2.5H135.5V1.25H136.75V0H139.25ZM140.5 8.75V2.5H141.75V1.25H143V0H146.75V1.25H148V2.5H149.25V8.75H146.75V6.25H143V8.75H140.5ZM143 5H146.75V2.5H145.5V1.25H144.25V2.5H143V5ZM150.5 8.75V0H158V1.25H159.25V5H158V6.25H153V8.75H150.5ZM153 5H156.75V1.25H153V5ZM161.75 8.75V7.5H160.5V1.25H161.75V0H168V1.25H169.25V7.5H168V8.75H161.75ZM163 7.5H166.75V1.25H163V7.5ZM170.5 8.75V0H173V3.75H176.75V0H179.25V8.75H176.75V5H173V8.75H170.5ZM180.5 8.75V0H183V2.5H185.5V8.75H180.5ZM186.75 8.75V0H189.25V8.75H186.75ZM183 7.5H184.25V3.75H183V7.5ZM45.5 24.75V16H54.25V24.75H51.75V17.25H48V24.75H45.5ZM56.75 24.75V23.5H55.5V17.25H56.75V16H63V17.25H64.25V23.5H63V24.75H56.75ZM58 23.5H61.75V17.25H58V23.5ZM78 24.75V23.5H76.75V22.25H75.5V18.5H76.75V17.25H78V16H83V17.25H84.25V18.5H81.75V17.25H79.25V18.5H78V22.25H79.25V23.5H81.75V22.25H84.25V23.5H83V24.75H78ZM89.25 18.5H90.5V19.75H91.75V21H93V23.5H94.25V24.75H91.75V23.5H90.5V21H88V24.75H85.5V16H88V19.75H89.25V18.5ZM94.25 16V17.25H93V18.5H90.5V17.25H91.75V16H94.25ZM95.5 24.75V16H98V21H99.25V19.75H100.5V18.5H101.75V16H104.25V24.75H101.75V21H100.5V22.25H99.25V23.5H98V24.75H95.5ZM105.5 26V23.5H106.75V21H108V16H114.25V23.5H115.5V26H113V24.75H108V26H105.5ZM109.25 23.5H111.75V17.25H109.25V23.5ZM119.25 18.5H120.5V19.75H121.75V21H123V23.5H124.25V24.75H121.75V23.5H120.5V21H118V24.75H115.5V16H118V19.75H119.25V18.5ZM124.25 16V17.25H123V18.5H120.5V17.25H121.75V16H124.25ZM125.5 24.75V16H134.25V17.25H128V19.75H133V21H128V23.5H134.25V24.75H125.5ZM138 22.25V21H140.5V19.75H141.75V18.5H138V19.75H135.5V17.25H136.75V16H143V17.25H144.25V19.75H143V21H141.75V22.25H138ZM138 24.75V23.5H141.75V24.75H138Z" fill="black"/>
</svg>
