<svg width="148" height="12" viewBox="0 0 148 12" fill="none" xmlns="http://www.w3.org/2000/svg">
<path d="M1.94267 10.5479V9.09579H0.490562V7.64369H3.39477V9.09579H7.75109V6.19158H1.94267V4.73948H0.490562V0.383163H3.39477V4.73948H7.75109V0.383163H10.6553V9.09579H9.20319V10.5479H1.94267ZM16.4637 3.28737H17.9158V4.73948H19.3679V6.19158H20.82V9.09579H22.2721V10.5479H19.3679V9.09579H17.9158V6.19158H15.0116V10.5479H12.1074V0.383163H15.0116V4.73948H16.4637V3.28737ZM22.2721 0.383163V1.83527H20.82V3.28737H17.9158V1.83527H19.3679V0.383163H22.2721ZM23.7242 10.5479V0.383163H32.4369V1.83527H33.889V6.19158H32.4369V7.64369H26.6284V10.5479H23.7242ZM26.6284 6.19158H30.9848V1.83527H26.6284V6.19158ZM35.3411 10.5479V3.28737H36.7932V1.83527H38.2453V0.383163H42.6016V1.83527H44.0537V3.28737H45.5058V10.5479H42.6016V7.64369H38.2453V10.5479H35.3411ZM38.2453 6.19158H42.6016V3.28737H41.1495V1.83527H39.6974V3.28737H38.2453V6.19158ZM46.9579 12V9.09579H48.41V6.19158H49.8621V0.383163H57.1226V9.09579H58.5747V12H55.6705V10.5479H49.8621V12H46.9579ZM51.3142 9.09579H54.2184V1.83527H51.3142V9.09579ZM60.0268 10.5479V9.09579H58.5747V7.64369H61.479V9.09579H65.8353V6.19158H60.0268V4.73948H58.5747V0.383163H61.479V4.73948H65.8353V0.383163H68.7395V9.09579H67.2874V10.5479H60.0268ZM83.2605 10.5479V0.383163H91.9732V3.28737H90.521V1.83527H86.1647V10.5479H83.2605ZM93.4253 10.5479V3.28737H94.8774V1.83527H96.3295V0.383163H100.686V1.83527H102.138V3.28737H103.59V10.5479H100.686V7.64369H96.3295V10.5479H93.4253ZM96.3295 6.19158H100.686V3.28737H99.2337V1.83527H97.7816V3.28737H96.3295V6.19158ZM105.042 10.5479V0.383163H113.755V1.83527H115.207V6.19158H113.755V7.64369H107.946V10.5479H105.042ZM107.946 6.19158H112.303V1.83527H107.946V6.19158ZM116.659 10.5479V3.28737H118.111V1.83527H119.563V0.383163H123.919V1.83527H125.372V3.28737H126.824V10.5479H123.919V7.64369H119.563V10.5479H116.659ZM119.563 6.19158H123.919V3.28737H122.467V1.83527H121.015V3.28737H119.563V6.19158ZM131.18 0.383163V4.73948H129.728V3.28737H128.276V0.383163H131.18ZM134.084 4.73948H135.536V6.19158H134.084V10.5479H132.632V6.19158H131.18V4.73948H132.632V0.383163H134.084V4.73948ZM138.44 0.383163V3.28737H136.988V4.73948H135.536V0.383163H138.44ZM129.728 6.19158H131.18V10.5479H128.276V7.64369H129.728V6.19158ZM135.536 10.5479V6.19158H136.988V7.64369H138.44V10.5479H135.536ZM142.797 7.64369V0.383163H147.153V4.73948H145.701V7.64369H142.797ZM142.797 10.5479V9.09579H145.701V10.5479H142.797Z" fill="black"/>
</svg>
