<svg width="354" height="47" viewBox="0 0 354 47" fill="none" xmlns="http://www.w3.org/2000/svg">
<path d="M17.2841 6.5625H24.1875C27.4261 6.5625 30.3026 7.28693 32.8168 8.73579C35.331 10.1847 37.3054 12.2017 38.7401 14.7869C40.1747 17.3722 40.892 20.3693 40.892 23.7784C40.892 27.1875 40.1747 30.1918 38.7401 32.7912C37.3054 35.3906 35.331 37.4219 32.8168 38.8849C30.3026 40.348 27.4261 41.0795 24.1875 41.0795H17.2841C14.0455 41.0795 11.169 40.3551 8.65483 38.9062C6.14063 37.4574 4.16619 35.4403 2.73153 32.8551C1.29688 30.2699 0.579546 27.2727 0.579546 23.8636C0.579546 20.4545 1.29688 17.4503 2.73153 14.8509C4.16619 12.2514 6.14063 10.2202 8.65483 8.7571C11.169 7.29403 14.0455 6.5625 17.2841 6.5625ZM17.2841 11.25C14.8125 11.25 12.7244 11.7685 11.0199 12.8054C9.32955 13.8423 8.04403 15.3054 7.16335 17.1946C6.29688 19.0838 5.86364 21.3068 5.86364 23.8636C5.86364 26.392 6.29688 28.5938 7.16335 30.4688C8.04403 32.3438 9.32955 33.7997 11.0199 34.8366C12.7244 35.8736 14.8125 36.392 17.2841 36.392H24.1875C26.6591 36.392 28.7401 35.8736 30.4304 34.8366C32.1349 33.7997 33.4205 32.3366 34.2869 30.4474C35.1676 28.5582 35.608 26.3352 35.608 23.7784C35.608 21.25 35.1676 19.0483 34.2869 17.1733C33.4205 15.2983 32.1349 13.8423 30.4304 12.8054C28.7401 11.7685 26.6591 11.25 24.1875 11.25H17.2841ZM23.4205 0.596591V46.7898H18.1364V0.596591H23.4205ZM49.745 45V1.36364H64.4893C67.9126 1.36364 70.7109 1.98153 72.8842 3.21733C75.0717 4.43892 76.6911 6.09375 77.7422 8.18182C78.7933 10.2699 79.3189 12.5994 79.3189 15.1705C79.3189 17.7415 78.7933 20.0781 77.7422 22.1804C76.7053 24.2827 75.1001 25.9588 72.9268 27.2088C70.7536 28.4446 67.9695 29.0625 64.5746 29.0625H54.0064V24.375H64.4041C66.7479 24.375 68.63 23.9702 70.0504 23.1605C71.4709 22.3509 72.5007 21.2571 73.1399 19.8793C73.7933 18.4872 74.12 16.9176 74.12 15.1705C74.12 13.4233 73.7933 11.8608 73.1399 10.483C72.5007 9.10511 71.4638 8.02557 70.0291 7.24432C68.5945 6.44886 66.6911 6.05114 64.3189 6.05114H55.0291V45H49.745ZM85.1676 45H79.6278L95.6506 1.36364H101.105L117.128 45H111.588L98.5483 8.26704H98.2074L85.1676 45ZM87.2131 27.9545H109.543V32.642H87.2131V27.9545ZM137.902 45.5966C135.089 45.5966 132.582 45.1136 130.381 44.1477C128.193 43.1818 126.453 41.8395 125.161 40.1207C123.882 38.3878 123.186 36.3778 123.072 34.0909H128.442C128.555 35.4972 129.038 36.7116 129.891 37.7344C130.743 38.7429 131.858 39.5241 133.236 40.0781C134.614 40.6321 136.141 40.9091 137.817 40.9091C139.692 40.9091 141.354 40.5824 142.803 39.929C144.251 39.2756 145.388 38.3665 146.212 37.2017C147.036 36.0369 147.447 34.6875 147.447 33.1534C147.447 31.5483 147.05 30.1349 146.254 28.9134C145.459 27.6776 144.294 26.7116 142.76 26.0156C141.226 25.3196 139.351 24.9716 137.135 24.9716H133.641V20.2841H137.135C138.868 20.2841 140.388 19.9716 141.695 19.3466C143.016 18.7216 144.045 17.8409 144.784 16.7045C145.537 15.5682 145.913 14.233 145.913 12.6989C145.913 11.2216 145.587 9.93608 144.933 8.84233C144.28 7.74858 143.357 6.89631 142.163 6.28551C140.984 5.67472 139.592 5.36932 137.987 5.36932C136.482 5.36932 135.061 5.64631 133.726 6.20028C132.405 6.74006 131.325 7.52841 130.487 8.56534C129.649 9.58807 129.195 10.8239 129.124 12.2727H124.01C124.095 9.98579 124.784 7.98295 126.077 6.2642C127.369 4.53125 129.06 3.18182 131.148 2.21591C133.25 1.25 135.558 0.767044 138.072 0.767044C140.771 0.767044 143.087 1.31392 145.018 2.40767C146.95 3.48721 148.435 4.91477 149.472 6.69034C150.509 8.46591 151.027 10.3835 151.027 12.4432C151.027 14.9006 150.381 16.9957 149.088 18.7287C147.81 20.4616 146.07 21.6619 143.868 22.3295V22.6705C146.624 23.125 148.776 24.2969 150.324 26.1861C151.872 28.0611 152.646 30.3835 152.646 33.1534C152.646 35.5256 152 37.6562 150.707 39.5455C149.429 41.4205 147.682 42.8977 145.466 43.9773C143.25 45.0568 140.729 45.5966 137.902 45.5966ZM166.048 19.6875H178.491C181.616 19.6875 184.251 20.1989 186.396 21.2216C188.555 22.2443 190.189 23.6861 191.297 25.5469C192.419 27.4077 192.98 29.6023 192.98 32.1307C192.98 34.6591 192.419 36.8892 191.297 38.821C190.189 40.7528 188.555 42.2656 186.396 43.3594C184.251 44.4531 181.616 45 178.491 45H162.128V1.36364H167.412V40.3977H178.491C180.48 40.3977 182.163 40 183.541 39.2045C184.933 38.3949 185.984 37.358 186.695 36.0938C187.419 34.8153 187.781 33.4659 187.781 32.0455C187.781 29.9574 186.979 28.1605 185.374 26.6548C183.768 25.1349 181.474 24.375 178.491 24.375H166.048V19.6875ZM202.526 1.36364V45H197.241V1.36364H202.526ZM229.979 45V1.36364H235.263V20.7955H258.531V1.36364H263.815V45H258.531V25.483H235.263V45H229.979ZM270.643 45V40.142H271.922C273.74 40.142 275.153 39.5597 276.162 38.3949C277.17 37.2301 277.895 35.348 278.335 32.7486C278.79 30.1491 279.095 26.7045 279.251 22.4148L280.018 1.36364H306.609V45H301.325V6.05114H285.047L284.365 23.4375C284.195 28.0114 283.776 31.9034 283.108 35.1136C282.44 38.3239 281.268 40.7741 279.592 42.4645C277.916 44.1548 275.473 45 272.263 45H270.643ZM353.985 23.1818C353.985 27.7841 353.154 31.7614 351.492 35.1136C349.83 38.4659 347.55 41.0511 344.653 42.8693C341.755 44.6875 338.445 45.5966 334.724 45.5966C331.002 45.5966 327.692 44.6875 324.795 42.8693C321.897 41.0511 319.617 38.4659 317.955 35.1136C316.293 31.7614 315.462 27.7841 315.462 23.1818C315.462 18.5795 316.293 14.6023 317.955 11.25C319.617 7.89773 321.897 5.3125 324.795 3.49432C327.692 1.67614 331.002 0.767044 334.724 0.767044C338.445 0.767044 341.755 1.67614 344.653 3.49432C347.55 5.3125 349.83 7.89773 351.492 11.25C353.154 14.6023 353.985 18.5795 353.985 23.1818ZM348.871 23.1818C348.871 19.4034 348.239 16.2145 346.975 13.6151C345.725 11.0156 344.028 9.0483 341.883 7.71307C339.752 6.37784 337.366 5.71023 334.724 5.71023C332.082 5.71023 329.688 6.37784 327.543 7.71307C325.413 9.0483 323.715 11.0156 322.451 13.6151C321.201 16.2145 320.576 19.4034 320.576 23.1818C320.576 26.9602 321.201 30.1491 322.451 32.7486C323.715 35.348 325.413 37.3153 327.543 38.6506C329.688 39.9858 332.082 40.6534 334.724 40.6534C337.366 40.6534 339.752 39.9858 341.883 38.6506C344.028 37.3153 345.725 35.348 346.975 32.7486C348.239 30.1491 348.871 26.9602 348.871 23.1818Z" fill="#9D9BFF"/>
</svg>
