<svg width="101" height="16" viewBox="0 0 101 16" fill="none" xmlns="http://www.w3.org/2000/svg">
<path d="M2.61364 0.454545L6.36364 6.50568H6.47727L10.2273 0.454545H12.3011L7.72727 7.72727L12.3011 15H10.2273L6.47727 9.0625H6.36364L2.61364 15H0.539773L5.22727 7.72727L0.539773 0.454545H2.61364ZM26.6317 7.72727C26.6317 9.26136 26.3548 10.5871 25.8008 11.7045C25.2468 12.822 24.4869 13.6837 23.521 14.2898C22.555 14.8958 21.4518 15.1989 20.2113 15.1989C18.9708 15.1989 17.8675 14.8958 16.9016 14.2898C15.9357 13.6837 15.1758 12.822 14.6218 11.7045C14.0678 10.5871 13.7908 9.26136 13.7908 7.72727C13.7908 6.19318 14.0678 4.86742 14.6218 3.75C15.1758 2.63258 15.9357 1.77083 16.9016 1.16477C17.8675 0.558712 18.9708 0.255681 20.2113 0.255681C21.4518 0.255681 22.555 0.558712 23.521 1.16477C24.4869 1.77083 25.2468 2.63258 25.8008 3.75C26.3548 4.86742 26.6317 6.19318 26.6317 7.72727ZM24.9272 7.72727C24.9272 6.4678 24.7165 5.40483 24.2951 4.53835C23.8784 3.67188 23.3126 3.0161 22.5977 2.57102C21.8874 2.12595 21.092 1.90341 20.2113 1.90341C19.3306 1.90341 18.5328 2.12595 17.8178 2.57102C17.1076 3.0161 16.5418 3.67188 16.1204 4.53835C15.7037 5.40483 15.4954 6.4678 15.4954 7.72727C15.4954 8.98674 15.7037 10.0497 16.1204 10.9162C16.5418 11.7827 17.1076 12.4384 17.8178 12.8835C18.5328 13.3286 19.3306 13.5511 20.2113 13.5511C21.092 13.5511 21.8874 13.3286 22.5977 12.8835C23.3126 12.4384 23.8784 11.7827 24.2951 10.9162C24.7165 10.0497 24.9272 8.98674 24.9272 7.72727ZM29.5934 15V0.454545H34.5082C35.6493 0.454545 36.582 0.660511 37.3065 1.07244C38.0356 1.47964 38.5754 2.03125 38.9258 2.72727C39.2762 3.4233 39.4513 4.19981 39.4513 5.05682C39.4513 5.91383 39.2762 6.69271 38.9258 7.39347C38.5801 8.09422 38.0451 8.65294 37.3207 9.0696C36.5962 9.48153 35.6682 9.6875 34.5366 9.6875H31.0138V8.125H34.4798C35.261 8.125 35.8884 7.99006 36.3619 7.72017C36.8353 7.45028 37.1786 7.0857 37.3917 6.62642C37.6095 6.16241 37.7184 5.6392 37.7184 5.05682C37.7184 4.47443 37.6095 3.9536 37.3917 3.49432C37.1786 3.03504 36.833 2.67519 36.3548 2.41477C35.8765 2.14962 35.2421 2.01705 34.4513 2.01705H31.3548V15H29.5934ZM54.5614 7.72727C54.5614 9.26136 54.2844 10.5871 53.7305 11.7045C53.1765 12.822 52.4165 13.6837 51.4506 14.2898C50.4847 14.8958 49.3815 15.1989 48.141 15.1989C46.9005 15.1989 45.7972 14.8958 44.8313 14.2898C43.8654 13.6837 43.1055 12.822 42.5515 11.7045C41.9975 10.5871 41.7205 9.26136 41.7205 7.72727C41.7205 6.19318 41.9975 4.86742 42.5515 3.75C43.1055 2.63258 43.8654 1.77083 44.8313 1.16477C45.7972 0.558712 46.9005 0.255681 48.141 0.255681C49.3815 0.255681 50.4847 0.558712 51.4506 1.16477C52.4165 1.77083 53.1765 2.63258 53.7305 3.75C54.2844 4.86742 54.5614 6.19318 54.5614 7.72727ZM52.8569 7.72727C52.8569 6.4678 52.6462 5.40483 52.2248 4.53835C51.8081 3.67188 51.2423 3.0161 50.5273 2.57102C49.8171 2.12595 49.0217 1.90341 48.141 1.90341C47.2603 1.90341 46.4625 2.12595 45.7475 2.57102C45.0373 3.0161 44.4715 3.67188 44.0501 4.53835C43.6334 5.40483 43.4251 6.4678 43.4251 7.72727C43.4251 8.98674 43.6334 10.0497 44.0501 10.9162C44.4715 11.7827 45.0373 12.4384 45.7475 12.8835C46.4625 13.3286 47.2603 13.5511 48.141 13.5511C49.0217 13.5511 49.8171 13.3286 50.5273 12.8835C51.2423 12.4384 51.8081 11.7827 52.2248 10.9162C52.6462 10.0497 52.8569 8.98674 52.8569 7.72727ZM57.5231 0.454545H59.2844V13.3807H64.3981V0.454545H66.1594V13.3807H71.2731V0.454545H73.0344V15H57.5231V0.454545ZM76.5661 0.454545H78.299V11.9034H78.4411L86.3956 0.454545H88.1001V15H86.3388V3.57955H86.1967L78.2706 15H76.5661V0.454545ZM91.6246 15V0.454545H100.403V2.01705H93.386V6.93182H99.9485V8.49432H93.386V13.4375H100.517V15H91.6246Z" fill="#9D9BFF"/>
</svg>
