<svg width="116" height="42" viewBox="0 0 116 42" fill="none" xmlns="http://www.w3.org/2000/svg">
<path d="M0.915817 10.5479V9.09579H2.36792V7.64369H3.82003V6.19158H0.915817V1.83527H2.36792V0.383163H11.0805V10.5479H8.17634V7.64369H5.27213V10.5479H0.915817ZM5.27213 6.19158H8.17634V1.83527H3.82003V4.73948H5.27213V6.19158ZM24.1495 10.5479V0.383163H34.3142V10.5479H31.41V1.83527H27.0537V10.5479H24.1495ZM35.7663 10.5479V0.383163H44.479V1.83527H45.9311V6.19158H44.479V7.64369H38.6705V10.5479H35.7663ZM38.6705 6.19158H43.0268V1.83527H38.6705V6.19158ZM47.3832 10.5479V0.383163H50.2874V6.19158H51.7395V4.73948H53.1916V3.28737H54.6437V0.383163H57.5479V10.5479H54.6437V6.19158H53.1916V7.64369H51.7395V9.09579H50.2874V10.5479H47.3832ZM59 10.5479V0.383163H61.9042V9.09579H63.3563V0.383163H64.8084V9.09579H66.2605V0.383163H69.1647V10.5479H59ZM70.6168 10.5479V0.383163H80.7816V1.83527H73.521V4.73948H79.3295V6.19158H73.521V9.09579H80.7816V10.5479H70.6168ZM82.2337 10.5479V7.64369H83.6858V6.19158H85.1379V0.383163H92.3984V10.5479H89.4942V1.83527H86.59V9.09579H85.1379V10.5479H82.2337ZM108.372 10.5479V9.09579H106.919V7.64369H105.467V3.28737H106.919V1.83527H108.372V0.383163H114.18V1.83527H115.632V3.28737H112.728V1.83527H109.824V3.28737H108.372V7.64369H109.824V9.09579H112.728V7.64369H115.632V9.09579H114.18V10.5479H108.372ZM12.5327 25.5479V15.3832H15.4369V16.8353H16.889V18.2874H18.3411V16.8353H19.7932V15.3832H22.6974V25.5479H19.7932V19.7395H18.3411V22.6437H16.889V19.7395H15.4369V25.5479H12.5327ZM24.1495 25.5479V15.3832H27.0537V21.1916H28.5058V19.7395H29.9579V18.2874H31.41V15.3832H34.3142V25.5479H31.41V21.1916H29.9579V22.6437H28.5058V24.0958H27.0537V25.5479H24.1495ZM35.7663 25.5479V15.3832H44.479V16.8353H45.9311V21.1916H44.479V22.6437H38.6705V25.5479H35.7663ZM38.6705 21.1916H43.0268V16.8353H38.6705V21.1916ZM48.8353 25.5479V24.0958H47.3832V16.8353H48.8353V15.3832H56.0958V16.8353H57.5479V24.0958H56.0958V25.5479H48.8353ZM50.2874 24.0958H54.6437V16.8353H50.2874V24.0958ZM59 25.5479V15.3832H61.9042V16.8353H63.3563V18.2874H64.8084V16.8353H66.2605V15.3832H69.1647V25.5479H66.2605V19.7395H64.8084V22.6437H63.3563V19.7395H61.9042V25.5479H59ZM73.521 22.6437V15.3832H77.8774V19.7395H76.4253V22.6437H73.521ZM73.521 25.5479V24.0958H76.4253V25.5479H73.521ZM85.1379 22.6437V15.3832H89.4942V19.7395H88.0421V22.6437H85.1379ZM85.1379 25.5479V24.0958H88.0421V25.5479H85.1379ZM96.7547 22.6437V15.3832H101.111V19.7395H99.6589V22.6437H96.7547ZM96.7547 25.5479V24.0958H99.6589V25.5479H96.7547ZM0.915817 41.5479V31.3832H3.82003V37.1916H5.27213V35.7395H6.72424V34.2874H8.17634V31.3832H11.0805V41.5479H8.17634V37.1916H6.72424V38.6437H5.27213V40.0958H3.82003V41.5479H0.915817ZM12.5327 41.5479V38.6437H13.9848V37.1916H15.4369V31.3832H22.6974V41.5479H19.7932V32.8353H16.889V40.0958H15.4369V41.5479H12.5327ZM24.1495 41.5479V31.3832H27.0537V37.1916H28.5058V35.7395H29.9579V34.2874H31.41V31.3832H34.3142V41.5479H31.41V37.1916H29.9579V38.6437H28.5058V40.0958H27.0537V41.5479H24.1495ZM47.3832 41.5479V31.3832H50.2874V35.7395H54.6437V31.3832H57.5479V41.5479H54.6437V37.1916H50.2874V41.5479H47.3832ZM59 41.5479V31.3832H69.1647V32.8353H61.9042V35.7395H67.7126V37.1916H61.9042V40.0958H69.1647V41.5479H59ZM74.9732 41.5479V32.8353H72.0689V31.3832H80.7816V32.8353H77.8774V41.5479H74.9732ZM85.1379 41.5479V38.6437H88.0421V41.5479H85.1379ZM96.7547 41.5479V38.6437H99.6589V41.5479H96.7547ZM108.372 41.5479V38.6437H111.276V41.5479H108.372Z" fill="black"/>
</svg>
