<svg width="104" height="27" viewBox="0 0 104 27" fill="none" xmlns="http://www.w3.org/2000/svg">
<path d="M0.724236 10.5479V9.09579H2.17634V7.64369H3.62844V6.19158H0.724236V1.83527H2.17634V0.383163H10.889V10.5479H7.98476V7.64369H5.08055V10.5479H0.724236ZM5.08055 6.19158H7.98476V1.83527H3.62844V4.73948H5.08055V6.19158ZM25.41 10.5479V9.09579H23.9579V7.64369H26.8621V9.09579H31.2184V6.19158H26.8621V4.73948H31.2184V1.83527H26.8621V3.28737H23.9579V1.83527H25.41V0.383163H32.6705V1.83527H34.1226V4.73948H32.6705V6.19158H34.1226V9.09579H32.6705V10.5479H25.41ZM35.5747 10.5479V3.28737H37.0268V1.83527H38.479V0.383163H42.8353V1.83527H44.2874V3.28737H45.7395V10.5479H42.8353V7.64369H38.479V10.5479H35.5747ZM38.479 6.19158H42.8353V3.28737H41.3832V1.83527H39.9311V3.28737H38.479V6.19158ZM47.1916 10.5479V7.64369H48.6437V6.19158H50.0958V4.73948H48.6437V3.28737H47.1916V0.383163H50.0958V3.28737H51.5479V4.73948H53V3.28737H54.4521V0.383163H57.3563V3.28737H55.9042V4.73948H54.4521V6.19158H55.9042V7.64369H57.3563V10.5479H54.4521V7.64369H53V6.19158H51.5479V7.64369H50.0958V10.5479H47.1916ZM58.8084 10.5479V0.383163H67.521V1.83527H68.9732V4.73948H67.521V6.19158H68.9732V9.09579H67.521V10.5479H58.8084ZM61.7126 4.73948H66.0689V1.83527H61.7126V4.73948ZM61.7126 9.09579H66.0689V6.19158H61.7126V9.09579ZM70.4253 10.5479V3.28737H71.8774V1.83527H73.3295V0.383163H77.6858V1.83527H79.1379V3.28737H80.59V10.5479H77.6858V7.64369H73.3295V10.5479H70.4253ZM73.3295 6.19158H77.6858V3.28737H76.2337V1.83527H74.7816V3.28737H73.3295V6.19158ZM89.3026 10.5479V6.19158H83.4942V4.73948H82.0421V0.383163H84.9463V4.73948H89.3026V0.383163H92.2068V10.5479H89.3026ZM95.111 10.5479V9.09579H93.6589V7.64369H96.5631V9.09579H100.919V6.19158H95.111V4.73948H93.6589V0.383163H96.5631V4.73948H100.919V0.383163H103.824V9.09579H102.372V10.5479H95.111ZM18.1495 25.5479V15.3832H28.3142V25.5479H25.41V16.8353H21.0537V25.5479H18.1495ZM29.7663 25.5479V15.3832H32.6705V21.1916H34.1226V19.7395H35.5747V18.2874H37.0268V15.3832H39.9311V25.5479H37.0268V21.1916H35.5747V22.6437H34.1226V24.0958H32.6705V25.5479H29.7663ZM48.6437 27V25.5479H41.3832V15.3832H44.2874V24.0958H47.1916V15.3832H50.0958V24.0958H51.5479V27H48.6437ZM60.2605 27V25.5479H53V15.3832H55.9042V24.0958H58.8084V15.3832H61.7126V24.0958H63.1647V27H60.2605ZM66.0689 25.5479V24.0958H64.6168V22.6437H67.521V24.0958H71.8774V21.1916H66.0689V19.7395H64.6168V15.3832H67.521V19.7395H71.8774V15.3832H74.7816V24.0958H73.3295V25.5479H66.0689ZM79.1379 22.6437V15.3832H83.4942V19.7395H82.0421V22.6437H79.1379ZM79.1379 25.5479V24.0958H82.0421V25.5479H79.1379Z" fill="black"/>
</svg>
